<svg width="33" height="32" viewBox="0 0 33 32" fill="none" xmlns="http://www.w3.org/2000/svg">
  <rect x="20.7847" y="0.0407715" width="23" height="24" rx="11.5" transform="rotate(60 20.7847 0.0407715)" fill="#52C234"/>
  <path d="M18.7808 19.5689C18.7105 19.5428 18.6481 19.4884 18.6073 19.4178C18.5665 19.3471 18.5506 19.2658 18.5631 19.1919L19.2537 15.1325L13.3015 18.569C13.2429 18.6028 13.1704 18.6072 13.1 18.5811C13.0297 18.555 12.9672 18.5006 12.9264 18.4299C12.8855 18.3591 12.8697 18.2778 12.8823 18.2039C12.8948 18.1299 12.9349 18.0693 12.9935 18.0355L18.9457 14.599L15.0848 13.1673C15.0166 13.1393 14.9567 13.0847 14.9178 13.015C14.8789 12.9453 14.8641 12.866 14.8764 12.7937C14.8887 12.7215 14.9271 12.6619 14.9837 12.6276C15.0403 12.5933 15.1106 12.587 15.1797 12.6099L19.6811 14.2787C19.7514 14.3048 19.8138 14.3592 19.8546 14.4299C19.8954 14.5006 19.9113 14.5818 19.8988 14.6557L19.0933 19.3885C19.0807 19.4624 19.0407 19.5229 18.9821 19.5567C18.9235 19.5905 18.8511 19.5949 18.7808 19.5689Z" fill="white"/>
</svg>