<svg width="56" height="56" viewBox="0 0 56 56" fill="none" xmlns="http://www.w3.org/2000/svg">
<path d="M5.43923 42.548L25.0053 9.86124C25.3152 9.34356 25.7539 8.91505 26.2788 8.61751C26.8037 8.31997 27.3967 8.16357 28 8.16357C28.6033 8.16357 29.1964 8.31997 29.7212 8.61751C30.2461 8.91505 30.6848 9.34356 30.9947 9.86124L50.5608 42.548C50.8779 43.0776 51.0488 43.6819 51.0561 44.2992C51.0634 44.9165 50.9069 45.5247 50.6024 46.0618C50.298 46.5988 49.8566 47.0455 49.3232 47.3563C48.7897 47.6671 48.1834 47.8308 47.5661 47.8308H8.43392C7.81658 47.8308 7.21028 47.6671 6.67687 47.3563C6.14346 47.0455 5.70202 46.5988 5.39758 46.0618C5.09314 45.5247 4.93659 44.9165 4.94391 44.2992C4.95123 43.6819 5.12215 43.0776 5.43923 42.548ZM7.4561 43.7336C7.35012 43.9107 7.29298 44.1127 7.29051 44.319C7.28805 44.5254 7.34034 44.7287 7.44207 44.9082C7.5438 45.0878 7.69132 45.2372 7.86959 45.3411C8.04787 45.4451 8.25052 45.4999 8.45689 45.5H47.5672C47.7736 45.4999 47.9762 45.4451 48.1545 45.3411C48.3328 45.2372 48.4803 45.0878 48.582 44.9082C48.6837 44.7287 48.736 44.5254 48.7336 44.319C48.7311 44.1127 48.674 43.9107 48.568 43.7336L29.0128 11.072C28.9091 10.8992 28.7625 10.7561 28.5871 10.6568C28.4117 10.5575 28.2136 10.5053 28.012 10.5053C27.8105 10.5053 27.6124 10.5575 27.437 10.6568C27.2616 10.7561 27.1149 10.8992 27.0113 11.072L7.4561 43.7336Z" fill="#52C234"/>
<path d="M25.0764 20.4892C26.3998 17.8073 30.567 18.2437 31.2058 21.257C31.2758 21.5895 31.2896 22.0285 31.2473 22.5739C30.9739 26.0447 30.707 29.4372 30.4467 32.7512C30.3111 34.4662 28.4561 35.5162 26.9194 34.744C26.4002 34.4837 26.0148 34.0827 25.7633 33.5409C25.6393 33.2726 25.5558 32.8453 25.5128 32.259C25.2678 28.9377 25.0108 25.5985 24.7417 22.2414C24.6929 21.6252 24.8044 21.0412 25.0764 20.4892ZM28.2636 21.0437C27.6052 20.8808 27.0036 21.3576 27.0572 22.0576C27.327 25.5569 27.5979 29.0554 27.8698 32.5533C27.8717 32.5759 27.8813 32.5972 27.8971 32.6135C27.9128 32.6298 27.9337 32.6402 27.9563 32.6429C27.9847 32.6466 28.0131 32.6448 28.0416 32.6375C28.0882 32.6258 28.1134 32.5959 28.117 32.5478C28.3883 29.0697 28.661 25.5667 28.9352 22.039C28.9702 21.5917 28.6945 21.1509 28.2636 21.0437Z" fill="#52C234"/>
<path d="M31.4956 39.666C31.4956 40.5931 31.1273 41.4823 30.4718 42.1378C29.8162 42.7934 28.9271 43.1617 28 43.1617C27.0729 43.1617 26.1838 42.7934 25.5282 42.1378C24.8727 41.4823 24.5044 40.5931 24.5044 39.666C24.5044 38.7389 24.8727 37.8498 25.5282 37.1943C26.1838 36.5387 27.0729 36.1704 28 36.1704C28.9271 36.1704 29.8162 36.5387 30.4718 37.1943C31.1273 37.8498 31.4956 38.7389 31.4956 39.666ZM29.1616 39.666C29.1616 39.358 29.0392 39.0625 28.8213 38.8447C28.6035 38.6268 28.3081 38.5045 28 38.5045C27.6919 38.5045 27.3965 38.6268 27.1786 38.8447C26.9608 39.0625 26.8384 39.358 26.8384 39.666C26.8384 39.9741 26.9608 40.2695 27.1786 40.4874C27.3965 40.7052 27.6919 40.8276 28 40.8276C28.3081 40.8276 28.6035 40.7052 28.8213 40.4874C29.0392 40.2695 29.1616 39.9741 29.1616 39.666Z" fill="#52C234"/>
</svg>
