<svg width="19" height="19" viewBox="0 0 19 19" fill="none" xmlns="http://www.w3.org/2000/svg">
<g id="check 1">
<path id="Vector" d="M7.13359 11.2115C9.70725 8.63732 12.2151 6.13058 14.6571 3.69126C15.1017 3.24706 15.8035 3.19919 16.2799 3.6226C16.3757 3.70746 16.544 3.87049 16.785 4.1117C16.9552 4.28191 17.0706 4.4301 17.1312 4.55628C17.3502 5.01124 17.2633 5.5586 16.9075 5.91411C13.8274 8.99418 10.7531 12.0687 7.68466 15.1376C7.37517 15.4471 6.87197 15.4427 6.56767 15.138C5.0635 13.6338 3.57233 12.1424 2.09414 10.6637C1.70931 10.2789 1.6388 9.66958 1.91935 9.21461C1.98813 9.10353 2.10057 8.97291 2.25667 8.82274C2.3779 8.70646 2.49776 8.58784 2.61626 8.46686C2.92229 8.1549 3.28411 8.03268 3.70171 8.10022C4.01974 8.15143 4.22384 8.31249 4.46542 8.55518C5.36199 9.45719 6.24655 10.3426 7.11912 11.2115C7.12003 11.2124 7.12113 11.2132 7.12235 11.2137C7.12358 11.2142 7.1249 11.2145 7.12624 11.2145C7.12759 11.2145 7.12893 11.2142 7.13019 11.2137C7.13145 11.2132 7.13261 11.2124 7.13359 11.2115Z" fill="white" fill-opacity="0.85"/>
</g>
</svg>
