<svg width="56" height="56" viewBox="0 0 56 56" fill="none" xmlns="http://www.w3.org/2000/svg">
<g clip-path="url(#clip0_0_566)">
<path d="M23.8984 26.2216V9.10225C23.8984 9.07089 23.8828 9.05521 23.8514 9.05521C23.0034 9.05303 22.116 9.05303 21.1892 9.05521C20.5056 9.05631 20.0998 8.24256 20.6292 7.73615C22.9334 5.53553 25.2124 3.35751 27.4663 1.20209C27.8458 0.838965 28.3194 0.970215 28.653 1.3049C28.7084 1.36032 28.7634 1.41428 28.8181 1.46678C31.0217 3.5748 33.2179 5.67553 35.4069 7.76896C35.735 8.08287 35.6475 8.70084 35.2352 8.93928C35.0973 9.01876 34.9347 9.05813 34.7473 9.0574C33.8126 9.05157 32.9401 9.0512 32.13 9.05631C32.123 9.05631 32.1164 9.05896 32.1114 9.06368C32.1065 9.06839 32.1038 9.07479 32.1038 9.08146L32.1027 26.2468C32.1027 26.3117 32.1161 26.3146 32.1431 26.2555C34.8283 20.416 40.4184 16.6196 46.8825 16.3462C46.8926 16.3456 46.902 16.3412 46.9089 16.3339C46.9159 16.3265 46.9197 16.3169 46.9197 16.3068C46.9197 15.4077 46.9201 14.5149 46.9208 13.6282C46.9219 13.1152 47.4414 12.6996 47.9423 12.9052C48.0765 12.9606 48.2169 13.0649 48.3634 13.218C50.4992 15.4566 52.6327 17.694 54.7641 19.9304C55.1283 20.3132 55.0714 20.7551 54.7378 21.1018C52.4789 23.4504 50.3154 25.7119 48.2475 27.8863C47.7433 28.4157 46.9131 28.0329 46.9164 27.3088C46.9208 26.3769 46.9215 25.475 46.9186 24.6029C46.9186 24.5992 46.9179 24.5955 46.9165 24.5921C46.9151 24.5888 46.9131 24.5857 46.9105 24.5831C46.908 24.5806 46.9049 24.5786 46.9016 24.5773C46.8983 24.576 46.8948 24.5754 46.8913 24.5755C46.3174 24.604 45.7457 24.7017 45.1763 24.8687C42.8539 25.5497 41.0937 26.9563 39.8956 29.0883C39.8857 29.1062 39.8822 29.1269 39.8855 29.1471C39.8889 29.1674 39.899 29.1859 39.9142 29.1999C40.6113 29.8335 40.783 30.5627 40.4294 31.3874C40.2839 31.7265 39.9689 31.9233 39.783 32.2296C39.2244 33.1476 39.2175 34.0627 39.7622 34.9749C40.0932 35.5291 40.5872 35.8962 41.2442 36.0763C41.5034 36.1463 41.7627 36.154 42.0339 36.166C42.6759 36.1944 43.2425 36.6637 43.4864 37.2215C43.5958 37.4716 43.6461 37.7891 43.6373 38.1741C43.6198 38.9696 43.6202 39.7003 43.6384 40.366C43.653 40.8859 43.6016 41.2826 43.4842 41.556C43.2359 42.1313 42.6234 42.6104 41.9519 42.6104C41.1884 42.6093 40.5158 42.8849 40.0116 43.4558C39.2613 44.3068 39.1398 45.5679 39.7742 46.5227C39.9744 46.8235 40.2686 47.0422 40.425 47.3769C40.8078 48.1918 40.5716 48.9454 39.9361 49.559C39.3746 50.1007 38.8066 50.6698 38.232 51.2663C37.9404 51.5704 37.6585 51.7753 37.3866 51.881C36.8255 52.1008 36.1069 52.0079 35.6398 51.578C35.5378 51.484 35.4328 51.3925 35.3248 51.3035C34.4116 50.5466 33.0805 50.5838 32.1661 51.3166C31.4825 51.8646 31.2408 52.5569 31.2145 53.4254C31.1948 54.0466 30.7311 54.6176 30.1952 54.8604C29.9385 54.9763 29.6085 55.0306 29.2053 55.0233C28.4514 55.0088 27.6584 55.0091 26.8264 55.0244C26.4246 55.0317 26.1031 54.9843 25.8617 54.8822C25.1388 54.5782 24.7833 53.9526 24.7636 53.1869C24.7275 51.8329 23.6447 50.7949 22.2939 50.7544C21.4998 50.7304 20.9431 51.0333 20.3875 51.554C19.7116 52.1862 18.6277 52.114 17.99 51.4741C17.3359 50.8179 16.6888 50.1755 16.0486 49.5469C15.789 49.2925 15.6115 49.0416 15.5159 48.7944C15.2666 48.1502 15.4033 47.4447 15.8802 46.9438C16.5262 46.2642 16.7573 45.4884 16.5736 44.6163C16.3341 43.4843 15.3486 42.6344 14.1881 42.6224C13.4367 42.6158 12.7739 42.2101 12.4961 41.509C12.3918 41.2465 12.3459 40.8509 12.3583 40.3222C12.3765 39.5778 12.3787 38.8413 12.3648 38.1129C12.3488 37.2189 12.7225 36.6075 13.4859 36.2787C13.8994 36.1004 14.3577 36.1944 14.7886 36.0686C16.4511 35.5819 17.2452 33.5312 16.1088 32.0929C15.937 31.8752 15.7128 31.6849 15.5914 31.4301C15.202 30.6196 15.4044 29.7687 16.0858 29.2043C16.1281 29.1693 16.1354 29.1281 16.1077 29.0807C14.564 26.4097 12.2489 24.9022 9.16235 24.558C9.10839 24.5522 9.08141 24.5766 9.08141 24.6313C9.07922 25.4713 9.07922 26.3613 9.08141 27.3012C9.0836 28.0602 8.26438 28.4124 7.72844 27.8546C5.57011 25.6015 3.39464 23.3239 1.20203 21.0219C0.896878 20.7015 0.924222 20.2454 1.225 19.9304C3.51969 17.5336 5.69662 15.2568 7.75578 13.0999C8.28516 12.5454 9.0825 12.9676 9.0825 13.7037C9.0825 14.6581 9.08068 15.5226 9.07703 16.2969C9.07675 16.3081 9.08094 16.3189 9.0887 16.327C9.09647 16.3352 9.10719 16.3401 9.1186 16.3407C12.9081 16.5128 16.2611 17.7884 19.1778 20.1677C21.2027 21.8193 22.758 23.8409 23.8438 26.2326C23.8802 26.3128 23.8984 26.3091 23.8984 26.2216ZM30.5703 8.32022C30.5703 7.84881 30.9061 7.52943 31.383 7.52506C31.8591 7.52068 32.3411 7.52105 32.8289 7.52615C32.9033 7.52688 32.9135 7.50136 32.8595 7.44959L28.0197 2.82631C28.0151 2.82157 28.0087 2.81891 28.002 2.81891C27.9952 2.81891 27.9886 2.82157 27.9836 2.82631L23.1197 7.47365C23.0861 7.50646 23.0927 7.52287 23.1394 7.52287C23.501 7.52433 23.8591 7.52178 24.2134 7.51521C24.6021 7.50792 24.8642 7.53818 24.9998 7.606C25.2828 7.74964 25.4246 7.98553 25.4253 8.31365C25.4311 13.439 25.4311 18.6853 25.4253 24.0527C25.4253 24.1008 25.4457 24.1118 25.4866 24.0855C25.8169 23.8704 26.1669 23.7618 26.5366 23.7596C27.5523 23.7523 28.5629 23.7549 29.5684 23.7672C29.8652 23.7709 30.1824 23.8763 30.52 24.0833C30.5535 24.1038 30.5703 24.0943 30.5703 24.0549C30.5689 18.8151 30.5689 13.5702 30.5703 8.32022ZM7.99422 17.7943C7.69964 17.6412 7.55162 17.3987 7.55016 17.0669C7.54797 16.5974 7.54797 16.1103 7.55016 15.6057C7.55016 15.5568 7.53302 15.5503 7.49875 15.586L2.86016 20.439C2.82589 20.4747 2.82589 20.5101 2.86016 20.5451L7.49219 25.3937C7.52938 25.433 7.54834 25.4257 7.54907 25.3718C7.55271 24.9088 7.55089 24.4271 7.5436 23.9269C7.53375 23.2893 7.88703 23.0005 8.5236 23.0115C12.1505 23.0727 15.3289 24.8752 17.22 27.9618C17.2441 28.0012 17.2732 28.0052 17.3075 27.9738C17.6148 27.6894 17.9156 27.3099 18.2405 27.0901C18.7545 26.7422 19.3145 26.6854 19.9205 26.9194C20.2617 27.0518 20.4848 27.3274 20.7692 27.5385C21.3671 27.9826 22.0522 28.1204 22.8244 27.9519C22.8696 27.9417 22.8838 27.9151 22.867 27.8721C20.6959 22.236 15.6767 18.4615 9.68188 17.9113C9.20391 17.8676 8.6975 17.884 8.21407 17.8544C8.13762 17.8501 8.06271 17.8296 7.99422 17.7943ZM48.4345 17.2474C48.3755 17.5515 48.0867 17.8555 47.7389 17.8566C43.9297 17.8676 40.5781 19.0725 37.6841 21.4715C35.6533 23.1537 34.1367 25.2828 33.1341 27.859C33.1151 27.9078 33.1311 27.9381 33.1822 27.9497C33.8399 28.1051 34.455 28.0135 35.0273 27.6752C35.3938 27.4597 35.6519 27.0988 36.0434 26.9347C37.2553 26.4272 37.9542 27.1852 38.6991 27.9913C38.7037 27.9961 38.7094 27.9998 38.7157 28.0021C38.722 28.0044 38.7287 28.0052 38.7354 28.0044C38.7421 28.0037 38.7485 28.0014 38.7541 27.9978C38.7598 27.9942 38.7645 27.9894 38.768 27.9837C40.6547 24.8512 43.8955 23.0541 47.5814 23.0093C48.0583 23.0027 48.4455 23.298 48.4488 23.8001C48.4517 24.3229 48.4528 24.8471 48.452 25.3729C48.4513 25.4261 48.4695 25.4334 48.5067 25.3947L53.1694 20.5155C53.1752 20.5097 53.1784 20.5018 53.1784 20.4934C53.1784 20.485 53.1752 20.4769 53.1694 20.4707L48.5023 15.5838C48.4688 15.5488 48.452 15.5554 48.452 15.6035C48.452 15.9404 48.4513 16.2732 48.4498 16.6021C48.4477 16.9944 48.4426 17.2095 48.4345 17.2474ZM23.0027 49.291C24.9594 49.6585 26.2522 51.2696 26.3069 53.2788C26.3086 53.3339 26.3317 53.3862 26.3713 53.4246C26.4109 53.463 26.4639 53.4845 26.5191 53.4844H29.4809C29.5369 53.4844 29.5907 53.4624 29.6306 53.4231C29.6705 53.3838 29.6934 53.3304 29.6942 53.2744C29.7139 52.1355 30.1044 51.1825 30.8656 50.4154C31.4814 49.7963 32.3695 49.3599 33.2314 49.2505C34.5155 49.0879 35.6464 49.4729 36.6242 50.4055C36.6645 50.4438 36.7181 50.4649 36.7736 50.4643C36.8292 50.4637 36.8823 50.4414 36.9217 50.4022L39.0119 48.311C39.0523 48.2708 39.0754 48.2164 39.0762 48.1595C39.077 48.1027 39.0555 48.0479 39.0163 48.0069C37.7891 46.7196 37.4719 44.986 38.2331 43.3902C38.9211 41.9476 40.2686 41.1087 41.883 41.0835C41.9407 41.0826 41.9958 41.0591 42.0363 41.018C42.0768 40.9768 42.0995 40.9214 42.0995 40.8636L42.0984 37.8996C42.0985 37.8465 42.0778 37.7954 42.0409 37.7572C42.0039 37.7191 41.9536 37.6968 41.9005 37.6951C40.4436 37.652 39.3254 37.0625 38.5459 35.9265C37.4697 34.358 37.5933 32.1694 38.9933 30.7902C39.11 30.6757 39.1103 30.5605 38.9944 30.4446C38.306 29.7555 37.6192 29.069 36.9338 28.3851C36.8273 28.2793 36.7194 28.2779 36.61 28.3807C35.1444 29.7588 33.0936 29.9622 31.4497 28.8324C30.3173 28.0537 29.7303 26.9333 29.6888 25.4713C29.6873 25.4227 29.667 25.3765 29.6321 25.3426C29.5972 25.3087 29.5504 25.2897 29.5017 25.2897H26.5016C26.4513 25.2897 26.4029 25.3093 26.367 25.3442C26.331 25.3792 26.3102 25.4268 26.3091 25.4768C26.2726 26.841 25.7527 27.9115 24.7494 28.688C23.0956 29.9688 20.9213 29.819 19.39 28.3818C19.2792 28.2782 19.1705 28.2801 19.0641 28.3872L16.987 30.4643C16.947 30.5043 16.9242 30.5585 16.9236 30.6151C16.923 30.6717 16.9446 30.7263 16.9838 30.7672C18.2908 32.1268 18.5544 34.0343 17.6159 35.6651C16.975 36.7792 15.9892 37.4442 14.6584 37.6601C14.4594 37.6918 14.245 37.6579 14.0481 37.7071C14.0059 37.718 13.9685 37.7426 13.9418 37.777C13.9151 37.8115 13.9005 37.8538 13.9005 37.8974V40.868C13.9004 40.9228 13.9217 40.9754 13.9597 41.0146C13.9977 41.0538 14.0495 41.0766 14.1039 41.078C15.4973 41.1189 16.582 41.6625 17.3578 42.7088C18.5861 44.3669 18.4056 46.4987 16.9827 48.0102C16.9443 48.0509 16.9233 48.1049 16.9241 48.1607C16.9249 48.2165 16.9475 48.2696 16.987 48.3088L19.0542 50.3771C19.1665 50.4901 19.2814 50.4923 19.3988 50.3837C20.456 49.4022 21.6573 49.038 23.0027 49.291Z" fill="#52C234"/>
<path d="M36.027 39.3859C36.027 41.5148 35.1813 43.5565 33.676 45.0619C32.1706 46.5672 30.1289 47.4129 28 47.4129C25.8711 47.4129 23.8294 46.5672 22.324 45.0619C20.8187 43.5565 19.973 41.5148 19.973 39.3859C19.973 37.257 20.8187 35.2153 22.324 33.71C23.8294 32.2046 25.8711 31.3589 28 31.3589C30.1289 31.3589 32.1706 32.2046 33.676 33.71C35.1813 35.2153 36.027 37.257 36.027 39.3859ZM34.4925 39.3859C34.4925 37.664 33.8085 36.0126 32.5909 34.795C31.3733 33.5774 29.7219 32.8934 28 32.8934C26.2781 32.8934 24.6267 33.5774 23.4091 34.795C22.1915 36.0126 21.5075 37.664 21.5075 39.3859C21.5075 41.1078 22.1915 42.7592 23.4091 43.9768C24.6267 45.1944 26.2781 45.8784 28 45.8784C29.7219 45.8784 31.3733 45.1944 32.5909 43.9768C33.8085 42.7592 34.4925 41.1078 34.4925 39.3859Z" fill="#52C234"/>
</g>
<defs>
<clipPath id="clip0_0_566">
<rect width="56" height="56" fill="white"/>
</clipPath>
</defs>
</svg>
