<svg width="48" height="48" viewBox="0 0 48 48" fill="none" xmlns="http://www.w3.org/2000/svg">
<rect width="48" height="48" rx="10" fill="white"/>
<path d="M32.2298 17.7804C31.6449 17.4006 30.893 17.4006 30.2245 17.7804L25.5457 20.9139L22.3708 22.908L17.7755 26.0415C17.1906 26.4214 16.4386 26.4214 15.7702 26.0415L12.1775 23.5727C11.5927 23.1929 11.1749 22.4332 11.1749 21.5786V16.8309C11.1749 16.0712 11.5091 15.3116 12.1775 14.8368L15.7702 12.4629C16.3551 12.0831 17.107 12.0831 17.7755 12.4629L21.3681 14.9318C21.953 15.3116 22.3708 16.0712 22.3708 16.9258V20.0593L25.5457 17.9703V14.7418C25.5457 13.9822 25.2115 13.2226 24.5431 12.7478L17.859 8.28487C17.2742 7.90504 16.5222 7.90504 15.8538 8.28487L9.00261 12.8427C8.3342 13.2226 8 13.9822 8 14.7418V23.6677C8 24.4273 8.3342 25.1869 9.00261 25.6617L15.7702 30.1246C16.3551 30.5045 17.107 30.5045 17.7755 30.1246L22.3708 27.0861L25.5457 24.997L30.141 21.9585C30.7258 21.5786 31.4778 21.5786 32.1462 21.9585L35.7389 24.3323C36.3238 24.7122 36.7415 25.4718 36.7415 26.3264V31.0742C36.7415 31.8338 36.4073 32.5935 35.7389 33.0682L32.2298 35.4421C31.6449 35.822 30.893 35.822 30.2245 35.4421L26.6319 33.0682C26.047 32.6884 25.6292 31.9288 25.6292 31.0742V28.0356L22.4543 30.1246V33.2582C22.4543 34.0178 22.7885 34.7774 23.4569 35.2522L30.2245 39.7151C30.8094 40.095 31.5614 40.095 32.2298 39.7151L38.9974 35.2522C39.5822 34.8724 40 34.1128 40 33.2582V24.2374C40 23.4777 39.6658 22.7181 38.9974 22.2433L32.2298 17.7804Z" fill="#8247E5"/>
</svg>
