<svg width="48" height="48" viewBox="0 0 48 48" fill="none" xmlns="http://www.w3.org/2000/svg">
<rect width="48" height="48" rx="10" fill="white"/>
<path d="M40 8H8V40H40V8Z" fill="black" stroke="black" stroke-miterlimit="10"/>
<path d="M35.1346 17.2293C34.7564 16.9311 34.3055 16.5238 33.4836 16.422C32.7127 16.3202 31.9273 16.8365 31.3964 17.1784C30.8655 17.5202 29.8618 18.5238 29.4473 18.8293C29.0327 19.1347 27.9709 19.4184 26.2618 20.4438C24.5527 21.4693 17.8473 25.7747 17.8473 25.7747L19.5927 25.7965L11.8109 29.8038H12.5891L11.4691 30.6547C11.4691 30.6547 12.4582 30.9165 13.2873 30.3929V30.6329C13.2873 30.6329 22.5527 26.982 24.3418 27.9274L23.2509 28.2474C23.3455 28.2474 25.1055 28.3638 25.1055 28.3638C25.1482 28.7283 25.2707 29.0788 25.4643 29.3906C25.6578 29.7023 25.9177 29.9676 26.2255 30.1674C27.2873 30.8656 27.3091 31.2511 27.3091 31.2511C27.3091 31.2511 26.7564 31.4765 26.7564 31.7602C26.7564 31.7602 27.5709 31.5129 28.3273 31.5347C28.8073 31.5529 29.2834 31.6286 29.7455 31.7602C29.7455 31.7602 29.6873 31.4547 28.9527 31.2511C28.2182 31.0475 27.4909 30.2474 27.1346 29.8111C26.9163 29.5333 26.774 29.2036 26.7217 28.8542C26.6695 28.5048 26.709 28.1478 26.8364 27.8184C27.0909 27.1565 27.9782 26.7929 29.8109 25.8474C31.9709 24.7274 32.4655 23.8984 32.7709 23.2511C33.0764 22.6038 33.5273 21.3165 33.7818 20.7129C34.1018 19.9347 34.4946 19.5202 34.8218 19.2729C35.1491 19.0256 36.6036 18.4802 36.6036 18.4802C36.6036 18.4802 35.4909 17.5129 35.1346 17.2293Z" fill="white"/>
</svg>
