<svg width="48" height="48" viewBox="0 0 48 48" fill="none" xmlns="http://www.w3.org/2000/svg">
<rect width="48" height="48" rx="10" fill="white"/>
<path d="M24.0851 38.8087C32.3106 38.8087 38.9787 32.1406 38.9787 23.9151C38.9787 15.6896 32.3106 9.02148 24.0851 9.02148C15.8596 9.02148 9.1915 15.6896 9.1915 23.9151C9.1915 32.1406 15.8596 38.8087 24.0851 38.8087Z" fill="white"/>
<path d="M24 8C20.8355 8 17.742 8.93838 15.1109 10.6965C12.4797 12.4546 10.4289 14.9534 9.21793 17.8771C8.00693 20.8007 7.69008 24.0177 8.30744 27.1214C8.9248 30.2251 10.4487 33.0761 12.6863 35.3137C14.9239 37.5513 17.7748 39.0752 20.8785 39.6926C23.9822 40.3099 27.1993 39.9931 30.1229 38.7821C33.0465 37.5711 35.5454 35.5203 37.3035 32.8891C39.0616 30.2579 39.9999 27.1645 39.9999 24C40.006 21.9049 39.5994 19.8292 38.8034 17.8913C38.0073 15.9534 36.8373 14.1913 35.3602 12.7055C33.8831 11.2198 32.1278 10.0395 30.1945 9.23216C28.2613 8.42478 26.188 8.0061 24.0929 8H24ZM24.2712 24.5424L22.6053 30.1598H31.5157C31.5747 30.1577 31.6336 30.1673 31.6889 30.188C31.7442 30.2087 31.7949 30.2401 31.8381 30.2804C31.8813 30.3207 31.9161 30.3691 31.9405 30.4229C31.965 30.4766 31.9786 30.5347 31.9806 30.5937V30.7409L31.2058 33.414C31.1716 33.5404 31.0955 33.6515 30.9899 33.7289C30.8843 33.8064 30.7555 33.8456 30.6247 33.8402H16.9879L19.2736 26.0533L16.7167 26.8281L17.2978 25.046L19.8547 24.2712L23.0702 13.3462C23.1056 13.2205 23.182 13.1103 23.2873 13.0331C23.3926 12.9558 23.5208 12.9161 23.6513 12.9201H27.0992C27.1583 12.918 27.2171 12.9276 27.2724 12.9483C27.3277 12.969 27.3784 13.0004 27.4216 13.0407C27.4648 13.081 27.4996 13.1294 27.5241 13.1832C27.5485 13.2369 27.5621 13.295 27.5641 13.354V13.5012L24.8523 22.7215L27.4092 21.9467L26.8668 23.8063L24.2712 24.5424Z" fill="#345D9D"/>
</svg>
