<svg width="48" height="48" viewBox="0 0 48 48" fill="none" xmlns="http://www.w3.org/2000/svg">
<rect width="48" height="48" rx="10" fill="white"/>
<path d="M10 25.3284C14.816 27.697 19.8414 30.1763 23.7228 32.0947L37.3333 25.3284C32.4052 32.1085 28.299 37.753 23.7228 44C19.1385 37.7668 14.0757 30.8889 10 25.3284ZM10.5235 23.4582L23.7377 16.9281L36.7799 23.4104L23.7451 29.9478L10.5235 23.4582ZM23.7228 14.8359L10 21.5261L23.6629 3L37.3333 21.5676L23.7228 14.8359Z" fill="#3AB83A"/>
<path d="M23.7228 32.0947L37.3334 25.3284C32.4052 32.1085 23.7228 44 23.7228 44V32.0947ZM23.7377 16.9281L36.78 23.4104L23.7452 29.9478L23.7377 16.9281ZM23.7228 14.8364L23.663 3L37.3334 21.5676L23.7228 14.8364Z" fill="#0B8311"/>
<path d="M10.5235 23.4585L23.7384 24.4628L36.7807 23.417L23.7452 29.9548L10.5235 23.4585Z" fill="#0B8311"/>
<path d="M23.7377 24.4628L36.7799 23.417L23.7451 29.9548L23.7377 24.4628Z" fill="#146714"/>
</svg>
