<svg width="48" height="48" viewBox="0 0 48 48" fill="none" xmlns="http://www.w3.org/2000/svg">
<rect width="48" height="48" rx="10" fill="white"/>
<path d="M16.7726 23.8843C16.7043 25.1679 17.6173 26.2668 18.8034 26.3407C18.8461 26.3407 18.8887 26.3407 18.9314 26.3407C20.126 26.3407 21.0902 25.2972 21.0817 24.0044C21.0817 22.7116 20.1175 21.6681 18.9229 21.6773C17.7795 21.6773 16.8323 22.6469 16.7726 23.8843Z" fill="#0033AD"/>
<path d="M8.73455 23.2841C8.35057 23.2564 8.01778 23.5796 8.00072 23.9952C7.98365 24.4107 8.27377 24.7709 8.65775 24.7893C9.04174 24.817 9.36599 24.4938 9.39159 24.0783C9.41719 23.6627 9.11853 23.3118 8.73455 23.2841Z" fill="#0033AD"/>
<path d="M16.6361 10.3469C16.9774 10.1622 17.1139 9.70052 16.9432 9.33114C16.7726 8.96176 16.3459 8.81401 16.0046 8.9987C15.6633 9.18339 15.5268 9.63588 15.6974 10.0053C15.8681 10.3839 16.2862 10.5408 16.6361 10.3469Z" fill="#0033AD"/>
<path d="M18.8205 14.4745C19.3495 14.1883 19.5629 13.4864 19.2983 12.9139C19.0338 12.3414 18.3853 12.1105 17.8563 12.3968C17.3272 12.6831 17.1139 13.3849 17.3784 13.9574C17.6429 14.5299 18.2914 14.7608 18.8205 14.4745Z" fill="#0033AD"/>
<path d="M11.4651 17.3098C11.8747 17.596 12.4208 17.476 12.6938 17.0327C12.9584 16.5895 12.8474 15.9985 12.4379 15.703C12.0283 15.4167 11.4822 15.5367 11.2091 15.98C10.9361 16.4232 11.0555 17.0235 11.4651 17.3098Z" fill="#0033AD"/>
<path d="M12.7706 22.8689C12.1733 22.832 11.6699 23.3214 11.6358 23.9678C11.6016 24.6142 12.0539 25.159 12.6512 25.196C13.2485 25.2329 13.7519 24.7435 13.7861 24.0971C13.8202 23.4599 13.3679 22.9058 12.7706 22.8689Z" fill="#0033AD"/>
<path d="M11.5845 30.6904C11.1494 30.9305 10.9702 31.503 11.192 31.9832C11.4139 32.4541 11.9429 32.6481 12.3866 32.408C12.8218 32.1679 13.001 31.5953 12.7792 31.1152C12.5573 30.6442 12.0197 30.4503 11.5845 30.6904Z" fill="#0033AD"/>
<path d="M15.7657 20.4588C16.3545 20.8744 17.1395 20.6989 17.5149 20.0618C17.8989 19.4246 17.7368 18.575 17.148 18.1687C16.5593 17.7532 15.7742 17.9286 15.3988 18.5658C15.0148 19.1937 15.1769 20.0433 15.7657 20.4588Z" fill="#0033AD"/>
<path d="M29.0344 14.3825C29.5293 14.7334 30.2034 14.5856 30.5277 14.05C30.8519 13.5144 30.7154 12.7849 30.2205 12.434C29.7256 12.0831 29.0515 12.2308 28.7272 12.7664C28.3945 13.3113 28.531 14.0315 29.0344 14.3825Z" fill="#0033AD"/>
<path d="M31.2359 10.2731C31.5602 10.5039 31.9868 10.4024 32.2002 10.0515C32.4135 9.70054 32.3196 9.23882 31.9954 9.00796C31.6711 8.7771 31.2445 8.87868 31.0312 9.22035C30.8264 9.57126 30.9202 10.0422 31.2359 10.2731Z" fill="#0033AD"/>
<path d="M29.1966 21.6592C28.0105 21.5853 26.9865 22.5734 26.9268 23.857C26.8585 25.1405 27.7716 26.2487 28.9577 26.3133C29.0003 26.3133 29.043 26.3133 29.0771 26.3133C30.2632 26.3133 31.2274 25.2698 31.2274 23.977C31.236 22.7488 30.34 21.7238 29.1966 21.6592Z" fill="#0033AD"/>
<path d="M19.5287 20.2925C19.8957 21.0775 20.638 21.5761 21.4572 21.5761C22.6433 21.5761 23.6075 20.5326 23.6075 19.2398C23.6075 18.8797 23.5307 18.5195 23.3771 18.1871C22.8395 17.0328 21.5425 16.5711 20.4844 17.1528C19.4178 17.7438 18.9912 19.1475 19.5287 20.2925Z" fill="#0033AD"/>
<path d="M36.4154 17.3099C36.8506 17.0698 37.0213 16.488 36.7994 16.017C36.5776 15.5461 36.04 15.3614 35.6048 15.6015C35.1696 15.8416 34.999 16.4141 35.2123 16.8851C35.4427 17.356 35.9717 17.5499 36.4154 17.3099Z" fill="#0033AD"/>
<path d="M30.9544 18.0485C30.3315 18.3902 30.0755 19.2121 30.3912 19.8862C30.7069 20.5603 31.4664 20.8373 32.0893 20.4956C32.7122 20.154 32.9682 19.3321 32.6524 18.658C32.3367 17.9839 31.5773 17.7161 30.9544 18.0485Z" fill="#0033AD"/>
<path d="M23.9147 9.92213C24.4011 9.94983 24.8192 9.54351 24.8533 9.01715C24.8874 8.49079 24.5035 8.0383 24.0171 8.00137C23.5307 7.97366 23.1126 8.37074 23.0785 8.8971C23.0529 9.4327 23.4283 9.88519 23.9147 9.92213Z" fill="#0033AD"/>
<path d="M23.9061 15.952C24.6058 15.9982 25.2031 15.4164 25.2373 14.6592C25.2799 13.902 24.7424 13.2556 24.0427 13.2186C23.343 13.1725 22.7457 13.7542 22.7115 14.5115C22.6774 15.2687 23.2064 15.9151 23.9061 15.952Z" fill="#0033AD"/>
<path d="M17.0456 29.9516C17.6686 29.6099 17.9245 28.7881 17.6088 28.1139C17.2931 27.4398 16.5337 27.1628 15.9108 27.5045C15.2879 27.8461 15.0319 28.668 15.3476 29.3421C15.6633 30.0162 16.4227 30.2933 17.0456 29.9516Z" fill="#0033AD"/>
<path d="M24.7253 17.956C24.0768 19.0365 24.3498 20.477 25.3482 21.1789C26.3466 21.8807 27.6777 21.5852 28.3262 20.5047C28.9747 19.4243 28.7017 17.9837 27.7033 17.2819C27.3534 17.0326 26.9439 16.9033 26.5258 16.9033C25.8004 16.9033 25.1263 17.3004 24.7253 17.956Z" fill="#0033AD"/>
<path d="M28.4713 27.7078C27.9337 26.5535 26.6367 26.0918 25.5786 26.6736C24.512 27.2553 24.0853 28.659 24.6229 29.804C25.1605 30.9583 26.4575 31.4201 27.5156 30.8383C28.5737 30.2658 29.0089 28.8806 28.4798 27.7263C28.4798 27.7171 28.4798 27.7171 28.4713 27.7078Z" fill="#0033AD"/>
<path d="M32.2343 27.5415C31.6455 27.126 30.8605 27.3014 30.485 27.9386C30.1011 28.5758 30.2632 29.4253 30.852 29.8316C31.4407 30.2472 32.2258 30.0717 32.6012 29.4346C32.9852 28.8066 32.8231 27.9571 32.2343 27.5415Z" fill="#0033AD"/>
<path d="M36.3642 24.0414C36.3984 23.395 35.9461 22.8502 35.3488 22.8132C34.7515 22.7763 34.2481 23.2657 34.2139 23.9121C34.1798 24.5585 34.6321 25.1034 35.2294 25.1403C35.8181 25.1773 36.3301 24.6786 36.3642 24.0414Z" fill="#0033AD"/>
<path d="M39.3422 23.2102C38.9583 23.1824 38.6255 23.5057 38.6084 23.9212C38.5913 24.3368 38.8815 24.6969 39.2654 24.7154C39.6494 24.7431 39.9737 24.4199 39.9993 24.0043C40.0163 23.5888 39.7262 23.2379 39.3422 23.2102Z" fill="#0033AD"/>
<path d="M36.5349 30.6905C36.1253 30.4042 35.5792 30.5243 35.3062 30.9675C35.0416 31.4108 35.1526 32.0018 35.5622 32.2973C35.9717 32.5836 36.5178 32.4635 36.7909 32.0203C37.064 31.577 36.9445 30.9768 36.5349 30.6905Z" fill="#0033AD"/>
<path d="M16.7555 37.7272C16.4313 37.4963 16.0046 37.5979 15.7913 37.9396C15.578 38.2905 15.6718 38.7522 15.9876 38.9831C16.3118 39.2139 16.7385 39.1124 16.9518 38.7707C17.1736 38.429 17.0798 37.9581 16.7555 37.7272Z" fill="#0033AD"/>
<path d="M31.364 37.6532C31.0226 37.8378 30.8861 38.2996 31.0568 38.6689C31.2274 39.0383 31.6541 39.1861 31.9954 39.0014C32.3367 38.8167 32.4732 38.3642 32.3026 37.9948C32.1319 37.6162 31.7138 37.4592 31.364 37.6532Z" fill="#0033AD"/>
<path d="M23.2747 30.0439C23.9232 28.9635 23.6501 27.5229 22.6518 26.8119C21.6534 26.11 20.3223 26.4055 19.6653 27.486C19.0082 28.5664 19.2898 30.007 20.2882 30.718C20.638 30.9673 21.0476 31.0966 21.4657 31.0966C22.1995 31.1059 22.8736 30.7088 23.2747 30.0439Z" fill="#0033AD"/>
<path d="M18.9656 33.6176C18.4707 33.2667 17.7965 33.4144 17.4723 33.95C17.148 34.4856 17.2846 35.2151 17.7795 35.566C18.2744 35.917 18.9485 35.7692 19.2727 35.2336C19.6055 34.698 19.469 33.9685 18.9656 33.6176Z" fill="#0033AD"/>
<path d="M23.9915 38.0778C23.5051 38.05 23.087 38.4564 23.0528 38.9827C23.0187 39.5091 23.4027 39.9616 23.8891 39.9985C24.3754 40.0262 24.7936 39.6291 24.8277 39.1028C24.8533 38.5672 24.4778 38.1147 23.9915 38.0778Z" fill="#0033AD"/>
<path d="M24 32.0477C23.3003 32.0016 22.703 32.5833 22.6689 33.3406C22.6262 34.0978 23.1638 34.7442 23.8635 34.7811C24.5632 34.8181 25.1605 34.2455 25.1946 33.4883C25.2373 32.7403 24.6997 32.0847 24 32.0477Z" fill="#0033AD"/>
<path d="M29.1795 33.5254C28.6504 33.8209 28.4371 34.5227 28.7102 35.0952C28.9832 35.6677 29.6317 35.8986 30.1608 35.6031C30.6898 35.3168 30.9031 34.615 30.6386 34.0425C30.3656 33.4699 29.7171 33.2299 29.1795 33.5254Z" fill="#0033AD"/>
</svg>
