<svg width="56" height="56" viewBox="0 0 56 56" fill="none" xmlns="http://www.w3.org/2000/svg">
<path d="M31.0822 4.34648C31.0815 4.29106 31.0618 4.28304 31.0231 4.32242C23.3538 11.994 15.6406 19.7064 7.88375 27.4596C7.08422 28.2591 5.8975 27.0724 6.7025 26.2685C14.4222 18.5481 22.1313 10.839 29.8298 3.14117C29.87 3.10106 29.8616 3.08065 29.8047 3.07992C28.7722 3.07408 27.6478 3.07481 26.4316 3.08211C25.1694 3.09086 25.2131 1.40211 26.3298 1.39992C28.1309 1.39773 29.9593 1.39737 31.815 1.39882C32.4209 1.39992 32.7731 1.78601 32.7666 2.36679C32.7498 4.12846 32.7498 5.90835 32.7666 7.70648C32.7688 7.89971 32.7352 8.06851 32.6659 8.21289C32.4264 8.71601 31.7614 8.82757 31.3447 8.44914C31.1668 8.28726 31.0782 8.06013 31.0789 7.76773C31.0826 6.64408 31.0836 5.50367 31.0822 4.34648Z" fill="#52C234"/>
<path d="M37.2411 43.317C37.2411 31.8931 37.2415 20.4448 37.2422 8.97213C37.2422 8.45369 37.6436 8.11791 38.1413 8.11901C40.6933 8.12557 43.2549 8.12448 45.8259 8.11573C46.3466 8.11463 46.7589 8.43291 46.7589 8.99619C46.7575 20.4536 46.7575 31.8997 46.7589 43.3345C46.7589 43.376 46.7793 43.3968 46.8202 43.3968C47.5289 43.4005 48.3208 43.4001 49.1958 43.3957C50.4142 43.3903 50.3891 45.0779 49.2723 45.0779C35.0995 45.0779 20.9267 45.0779 6.75391 45.0779C5.59781 45.0779 5.58797 43.3946 6.79438 43.3979C7.61396 43.3994 8.41714 43.3994 9.20391 43.3979C9.21348 43.3979 9.22266 43.3941 9.22943 43.3873C9.2362 43.3806 9.24 43.3714 9.24 43.3618C9.24511 40.424 9.24365 37.422 9.23563 34.3559C9.23344 33.7018 9.5211 33.3157 10.2025 33.3179C12.6248 33.3281 15.1966 33.3292 17.9178 33.3212C18.4209 33.3201 18.7611 33.727 18.76 34.2115C18.7571 37.2886 18.7567 40.3314 18.7589 43.3399C18.7589 43.3553 18.7651 43.3701 18.7762 43.3809C18.7873 43.3918 18.8023 43.3979 18.818 43.3979H23.2083C23.2176 43.3979 23.2265 43.3943 23.233 43.388C23.2396 43.3816 23.2433 43.373 23.2433 43.364C23.2404 36.2116 23.2404 29.0344 23.2433 21.8324C23.2433 21.5109 23.4456 21.1948 23.7409 21.0767C23.8685 21.0264 24.0308 21.0012 24.2277 21.0012C26.876 21.0005 29.4368 20.9997 31.9102 20.999C32.4177 20.999 32.7556 21.4004 32.7556 21.8762C32.76 29.1409 32.76 36.2969 32.7556 43.3443C32.7556 43.3585 32.7614 43.3722 32.7716 43.3822C32.7819 43.3923 32.7958 43.3979 32.8103 43.3979H37.1602C37.2141 43.3979 37.2411 43.3709 37.2411 43.317ZM45.0822 9.82963C45.0822 9.82122 45.0788 9.81315 45.0729 9.8072C45.067 9.80126 45.0589 9.79791 45.0505 9.79791H38.9495C38.9411 9.79791 38.9331 9.80126 38.9271 9.8072C38.9212 9.81315 38.9178 9.82122 38.9178 9.82963V43.3662C38.9178 43.3746 38.9212 43.3827 38.9271 43.3886C38.9331 43.3946 38.9411 43.3979 38.9495 43.3979H45.0505C45.0589 43.3979 45.067 43.3946 45.0729 43.3886C45.0788 43.3827 45.0822 43.3746 45.0822 43.3662V9.82963ZM31.0822 22.7184C31.0822 22.7126 31.0811 22.7069 31.0789 22.7016C31.0767 22.6963 31.0734 22.6915 31.0694 22.6874C31.0653 22.6834 31.0605 22.6802 31.0552 22.678C31.0499 22.6758 31.0442 22.6746 31.0384 22.6746H24.9616C24.95 22.6746 24.9388 22.6792 24.9306 22.6874C24.9224 22.6957 24.9178 22.7068 24.9178 22.7184V43.3553C24.9178 43.3669 24.9224 43.378 24.9306 43.3862C24.9388 43.3944 24.95 43.399 24.9616 43.399H31.0384C31.0442 43.399 31.0499 43.3979 31.0552 43.3957C31.0605 43.3935 31.0653 43.3903 31.0694 43.3862C31.0734 43.3821 31.0767 43.3773 31.0789 43.372C31.0811 43.3667 31.0822 43.361 31.0822 43.3553V22.7184ZM17.0822 35.0439C17.0822 35.0381 17.0811 35.0324 17.0789 35.0271C17.0767 35.0218 17.0734 35.017 17.0694 35.0129C17.0653 35.0089 17.0605 35.0056 17.0552 35.0034C17.0499 35.0012 17.0442 35.0001 17.0384 35.0001H10.9616C10.95 35.0001 10.9388 35.0047 10.9306 35.0129C10.9224 35.0211 10.9178 35.0322 10.9178 35.0439V43.3542C10.9178 43.3658 10.9224 43.3769 10.9306 43.3851C10.9388 43.3933 10.95 43.3979 10.9616 43.3979H17.0384C17.0442 43.3979 17.0499 43.3968 17.0552 43.3946C17.0605 43.3924 17.0653 43.3892 17.0694 43.3851C17.0734 43.381 17.0767 43.3762 17.0789 43.3709C17.0811 43.3656 17.0822 43.3599 17.0822 43.3542V35.0439Z" fill="#52C234"/>
</svg>
