<svg width="56" height="56" viewBox="0 0 56 56" fill="none" xmlns="http://www.w3.org/2000/svg">
<path d="M28.957 16.625H29.213C29.2655 16.625 29.3041 16.602 29.3289 16.5561C32.6167 10.4464 40.5475 8.55861 46.1398 12.7444C50.4109 15.9425 52.0144 21.7153 49.6923 26.6536C46.9284 32.5314 39.9306 34.9497 34.1491 31.9638C32.0848 30.897 30.4748 29.3027 29.3191 27.1808C29.2979 27.1421 29.2651 27.1228 29.2206 27.1228C28.5505 27.125 27.8844 27.1261 27.2223 27.1261C26.6653 27.1254 26.3408 26.853 26.2489 26.3091C26.2423 26.2704 26.2194 26.2507 26.18 26.25C25.3487 26.2478 24.5233 26.2489 23.7037 26.2533C23.3461 26.2555 23.1033 26.1811 22.8594 25.923C22.5334 25.5766 22.2071 25.2339 21.8805 24.8949C21.852 24.8657 21.8225 24.865 21.7919 24.8927C21.393 25.2587 21.0022 25.6204 20.6194 25.9777C20.4017 26.1822 20.1687 26.2555 19.8712 26.2544C18.7068 26.2493 17.6327 26.2478 16.6491 26.25C16.3887 26.2507 16.1558 26.149 15.9502 25.9449C15.6034 25.6003 15.2469 25.2613 14.8859 24.9167C14.856 24.8883 14.8276 24.8894 14.8006 24.92C14.4565 25.3043 14.1294 25.6594 13.8195 25.9853C13.6489 26.1636 13.4094 26.2511 13.16 26.2511C11.9656 26.2504 10.7939 26.2496 9.64469 26.2489C9.39094 26.2489 9.17729 26.1621 9.00375 25.9886C7.89031 24.881 6.74224 23.7337 5.55953 22.5466C5.17125 22.1572 5.14062 21.6213 5.51906 21.2428C6.73312 20.0288 7.89068 18.8712 8.99172 17.7702C9.37125 17.3917 9.95422 17.5044 10.4344 17.4989C10.4774 17.4989 10.4989 17.477 10.4989 17.4333C10.5004 15.4901 10.5007 13.5964 10.5 11.7524C10.5 11.6196 10.465 11.4888 10.395 11.3597C10.2514 11.0914 10.1128 10.8157 9.97937 10.5328C9.97042 10.514 9.95581 10.4984 9.93759 10.4882C9.91936 10.478 9.89842 10.4737 9.87766 10.4759C8.33328 10.6553 6.93437 9.36361 7.00437 7.78095C7.03573 7.06053 7.31391 6.45277 7.83891 5.95767C9.15141 4.71954 11.3389 5.17564 12.0345 6.84689C12.4589 7.86626 12.2412 8.79595 11.5577 9.64361C11.5292 9.67861 11.5252 9.71652 11.5456 9.75736L12.1603 10.9889C12.2193 11.1069 12.25 11.2372 12.25 11.3695V17.3906C12.25 17.4196 12.2615 17.4475 12.282 17.468C12.3025 17.4885 12.3304 17.5 12.3594 17.5H15.7227C15.7299 17.5 15.7369 17.4971 15.742 17.492C15.7471 17.4869 15.75 17.4799 15.75 17.4727V15.6461C15.75 15.606 15.7314 15.5783 15.6942 15.563C14.4036 15.038 13.7167 13.708 14.1159 12.3627C14.7022 10.3874 17.1412 9.91814 18.5237 11.3203C19.1527 11.9591 19.4042 12.9555 19.1494 13.8163C18.9058 14.6409 18.3794 15.2214 17.57 15.5575C17.5493 15.566 17.5316 15.5805 17.5191 15.5992C17.5067 15.6179 17.5 15.6399 17.5 15.6625V17.418C17.5 17.4397 17.5086 17.4606 17.524 17.476C17.5394 17.4914 17.5603 17.5 17.582 17.5H20.918C20.9397 17.5 20.9606 17.4914 20.976 17.476C20.9914 17.4606 21 17.4397 21 17.418V10.395C21 10.3549 20.9814 10.3272 20.9442 10.3119C19.7739 9.84267 19.0597 8.65923 19.2959 7.41892C19.5573 6.05064 20.7692 5.11001 22.1812 5.27189C23.9094 5.46876 24.9605 7.27782 24.2922 8.86923C24.0078 9.54663 23.5109 10.0286 22.8014 10.3152C22.7863 10.3213 22.7733 10.3318 22.7641 10.3455C22.755 10.3591 22.75 10.3752 22.75 10.3917V17.3906C22.75 17.4196 22.7615 17.4475 22.782 17.468C22.8025 17.4885 22.8304 17.5 22.8594 17.5H26.1745C26.2205 17.5 26.2467 17.477 26.2533 17.4311C26.3218 16.9615 26.5934 16.6936 27.0681 16.6272C27.1053 16.6221 27.1239 16.6006 27.1239 16.5627C27.1276 15.2954 27.1272 13.9016 27.1228 12.3813C27.1221 12.145 27.1684 11.9474 27.2617 11.7884C27.6773 11.0804 28.121 10.34 28.5928 9.56704C28.598 9.55826 28.6004 9.54822 28.5998 9.53826C28.5992 9.52829 28.5957 9.51888 28.5895 9.51126C27.9092 8.64501 27.7998 7.50861 28.3566 6.5647C29.5083 4.61564 32.3695 4.89236 33.1133 7.05142C33.3725 7.80392 33.2511 8.69423 32.7972 9.33845C32.1665 10.2331 31.2765 10.6076 30.1273 10.4617C30.1069 10.4595 30.0916 10.4668 30.0814 10.4836L28.9056 12.4414C28.8856 12.4743 28.875 12.5125 28.875 12.5519V16.543C28.875 16.5977 28.9023 16.625 28.957 16.625ZM10.4967 7.87501C10.4967 7.64382 10.4049 7.42209 10.2414 7.25861C10.0779 7.09513 9.85619 7.00329 9.625 7.00329C9.39381 7.00329 9.17208 7.09513 9.0086 7.25861C8.84512 7.42209 8.75328 7.64382 8.75328 7.87501C8.75328 8.10621 8.84512 8.32793 9.0086 8.49141C9.17208 8.65489 9.39381 8.74673 9.625 8.74673C9.85619 8.74673 10.0779 8.65489 10.2414 8.49141C10.4049 8.32793 10.4967 8.10621 10.4967 7.87501ZM22.7467 7.87501C22.7467 7.64382 22.6549 7.42209 22.4914 7.25861C22.3279 7.09513 22.1062 7.00329 21.875 7.00329C21.6438 7.00329 21.4221 7.09513 21.2586 7.25861C21.0951 7.42209 21.0033 7.64382 21.0033 7.87501C21.0033 8.10621 21.0951 8.32793 21.2586 8.49141C21.4221 8.65489 21.6438 8.74673 21.875 8.74673C22.1062 8.74673 22.3279 8.65489 22.4914 8.49141C22.6549 8.32793 22.7467 8.10621 22.7467 7.87501ZM31.4967 7.87501C31.4967 7.64382 31.4049 7.42209 31.2414 7.25861C31.0779 7.09513 30.8562 7.00329 30.625 7.00329C30.3938 7.00329 30.1721 7.09513 30.0086 7.25861C29.8451 7.42209 29.7533 7.64382 29.7533 7.87501C29.7533 8.10621 29.8451 8.32793 30.0086 8.49141C30.1721 8.65489 30.3938 8.74673 30.625 8.74673C30.8562 8.74673 31.0779 8.65489 31.2414 8.49141C31.4049 8.32793 31.4967 8.10621 31.4967 7.87501ZM17.4967 13.125C17.4967 12.8938 17.4049 12.6721 17.2414 12.5086C17.0779 12.3451 16.8562 12.2533 16.625 12.2533C16.3938 12.2533 16.1721 12.3451 16.0086 12.5086C15.8451 12.6721 15.7533 12.8938 15.7533 13.125C15.7533 13.3562 15.8451 13.5779 16.0086 13.7414C16.1721 13.9049 16.3938 13.9967 16.625 13.9967C16.8562 13.9967 17.0779 13.9049 17.2414 13.7414C17.4049 13.5779 17.4967 13.3562 17.4967 13.125ZM30.6206 17.8719C30.4544 18.2124 30.1718 18.3812 29.773 18.3783C29.1947 18.3732 28.6136 18.3728 28.0295 18.3772C28.0217 18.3772 28.0142 18.3803 28.0086 18.3858C28.0031 18.3914 28 18.3989 28 18.4067V25.2711C28 25.2976 28.0103 25.323 28.0288 25.3419C28.0472 25.3607 28.0722 25.3714 28.0984 25.3717C28.6307 25.3783 29.178 25.3779 29.7402 25.3706C30.1066 25.3652 30.4555 25.5183 30.6152 25.8552C31.6885 28.1207 33.3612 29.7471 35.6333 30.7344C37.8897 31.7144 40.53 31.7395 42.7952 30.8656C47.0072 29.2425 49.5939 24.9167 48.883 20.3941C48.3766 17.1686 46.2798 14.4364 43.2961 13.0889C41.183 12.1341 38.7187 11.9919 36.5531 12.682C33.8683 13.5366 31.8908 15.2666 30.6206 17.8719ZM21.1969 23.0541C21.6333 22.6417 22.1648 22.6494 22.5783 23.088C23.0413 23.5787 23.4792 24.0366 23.8919 24.4617C23.9036 24.4738 23.9177 24.4835 23.9333 24.4901C23.9489 24.4966 23.9657 24.5 23.9827 24.5H26.1953C26.2098 24.5 26.2237 24.4942 26.234 24.484C26.2442 24.4737 26.25 24.4598 26.25 24.4453V21.9559C26.25 21.9351 26.2417 21.915 26.2269 21.9003C26.2122 21.8855 26.1921 21.8772 26.1712 21.8772C21.436 21.8721 16.5167 21.8717 11.4133 21.8761C10.2091 21.8772 10.2102 20.1228 11.4144 20.1239C16.3632 20.1261 21.2647 20.1268 26.1187 20.1261C26.2077 20.1261 26.2522 20.0813 26.2522 19.9916L26.2511 19.3878C26.2511 19.2959 26.2055 19.25 26.1144 19.25L10.0592 19.2489C10.0374 19.2489 10.0158 19.2531 9.99576 19.2614C9.97568 19.2697 9.95747 19.2818 9.94219 19.297L7.41453 21.8236C7.38099 21.8579 7.38099 21.8918 7.41453 21.9253L9.94109 24.4519C9.97318 24.484 10.0122 24.5 10.0581 24.5H12.7444C12.7837 24.5 12.8173 24.4858 12.845 24.4574C13.2045 24.084 13.5508 23.7052 13.8841 23.3209C14.1116 23.0592 14.3099 22.8926 14.4791 22.8211C14.8225 22.6767 15.143 22.7456 15.4405 23.0278C15.9502 23.5105 16.4482 23.9874 16.9345 24.4584C16.9637 24.4862 16.998 24.5 17.0373 24.5H19.5869C19.6165 24.5 19.6449 24.4891 19.6667 24.4694C20.1443 24.0385 20.6544 23.5667 21.1969 23.0541Z" fill="#52C234"/>
<path d="M47.2467 21.8739C47.2467 22.3331 47.1563 22.7878 46.9805 23.2121C46.8048 23.6363 46.5473 24.0218 46.2226 24.3465C45.8979 24.6712 45.5124 24.9287 45.0881 25.1045C44.6639 25.2802 44.2092 25.3706 43.75 25.3706C42.8226 25.3706 41.9332 25.0022 41.2774 24.3465C40.6217 23.6907 40.2533 22.8013 40.2533 21.8739C40.2533 20.9465 40.6217 20.0571 41.2774 19.4014C41.9332 18.7456 42.8226 18.3772 43.75 18.3772C44.2092 18.3772 44.6639 18.4676 45.0881 18.6434C45.5124 18.8191 45.8979 19.0767 46.2226 19.4014C46.5473 19.7261 46.8048 20.1115 46.9805 20.5358C47.1563 20.96 47.2467 21.4147 47.2467 21.8739ZM45.4967 21.875C45.4967 21.4118 45.3127 20.9675 44.9851 20.6399C44.6575 20.3123 44.2133 20.1283 43.75 20.1283C43.2867 20.1283 42.8425 20.3123 42.5149 20.6399C42.1873 20.9675 42.0033 21.4118 42.0033 21.875C42.0033 22.3383 42.1873 22.7826 42.5149 23.1101C42.8425 23.4377 43.2867 23.6217 43.75 23.6217C44.2133 23.6217 44.6575 23.4377 44.9851 23.1101C45.3127 22.7826 45.4967 22.3383 45.4967 21.875Z" fill="#52C234"/>
<path d="M10.5164 49.0229C10.5011 49.4134 10.5798 49.9089 10.4147 50.2589C10.2517 50.6034 9.90281 50.7521 9.53313 50.751C7.70656 50.7459 6.01563 50.743 4.46031 50.7423C3.91016 50.7423 3.51969 50.3803 3.51969 49.8476C3.51823 44.769 3.5186 39.5266 3.52078 34.1206C3.52078 33.6207 3.93531 33.2521 4.42531 33.2532C6.10604 33.2576 7.80318 33.2561 9.51672 33.2489C10.1216 33.2467 10.5208 33.5999 10.5164 34.2234C10.512 34.9168 10.5113 35.5738 10.5142 36.1943C10.5144 36.2007 10.5161 36.2069 10.5194 36.2124C10.5226 36.2178 10.5272 36.2224 10.5326 36.2255C10.538 36.2286 10.5442 36.2302 10.5504 36.2301C10.5565 36.23 10.5626 36.2282 10.5678 36.225C13.701 34.4101 16.8335 32.5992 19.9653 30.7923C20.9475 30.2257 22.0114 30.0026 23.1569 30.1229C23.5681 30.1659 24.1245 30.3059 24.8259 30.5429C27.4816 31.4383 30.1215 32.3181 32.7458 33.1821C33.4341 33.4089 33.9259 33.6335 34.2213 33.8559C34.9038 34.3685 35.3154 35.0648 35.4561 35.945C35.4571 35.952 35.4596 35.9588 35.4634 35.9648C35.4671 35.9709 35.472 35.9761 35.4779 35.9802C35.4837 35.9843 35.4903 35.9872 35.4973 35.9886C35.5043 35.9901 35.5115 35.9901 35.5184 35.9887C39.531 35.2377 43.8484 34.4243 48.4706 33.5485C48.9789 33.4516 49.4149 33.4282 49.7788 33.4785C52.4683 33.8515 53.4822 37.3351 51.4172 39.0928C51.1554 39.3159 50.7186 39.5616 50.1069 39.83C43.2352 42.8407 36.334 45.8664 29.4033 48.907C29.2669 48.9668 29.1149 48.9967 28.9472 48.9967C22.8463 48.9945 16.7121 48.9941 10.5448 48.9956C10.5266 48.9956 10.5171 49.0047 10.5164 49.0229ZM23.1744 38.792C21.9406 38.6509 22.1298 36.9009 23.3527 37.0453C26.2183 37.3836 29.1069 37.7219 32.0184 38.0603C32.9995 38.174 33.7017 37.5003 33.7509 36.5531C33.7772 36.0405 33.6091 35.631 33.2467 35.3248C33.0659 35.1724 32.7341 35.0175 32.2514 34.86C29.5805 33.9901 26.9259 33.1034 24.2878 32.1999C23.9189 32.0731 23.6049 31.9801 23.3461 31.921C22.4682 31.7198 21.6132 31.8594 20.7813 32.3399C17.4213 34.281 14.012 36.2516 10.5536 38.2517C10.5413 38.259 10.5311 38.2694 10.524 38.2819C10.5169 38.2944 10.5132 38.3084 10.5131 38.3228V47.2084C10.5131 47.2183 10.517 47.2277 10.524 47.2347C10.531 47.2417 10.5405 47.2456 10.5503 47.2456H28.7645C28.815 47.2456 28.8649 47.2352 28.9111 47.215C35.9191 44.1408 42.9184 41.0641 49.9089 37.9848C50.8069 37.59 50.9972 36.5837 50.4798 35.8017C50.1047 35.2329 49.5403 35.1214 48.8742 35.2482C44.4088 36.0992 39.8891 36.953 35.315 37.8098C35.2647 37.8193 35.2253 37.8455 35.1969 37.8885C35.1192 38.0056 35.07 38.1543 34.9923 38.2757C34.4703 39.0873 33.7436 39.585 32.8125 39.7687C32.4654 39.8365 31.8934 39.8223 31.0964 39.726C28.3496 39.3914 25.709 39.08 23.1744 38.792ZM8.76422 35.0492C8.76422 35.0373 8.7595 35.0259 8.75109 35.0175C8.74268 35.0091 8.73127 35.0043 8.71938 35.0043H5.31344C5.30155 35.0043 5.29014 35.0091 5.28173 35.0175C5.27332 35.0259 5.2686 35.0373 5.2686 35.0492V48.9507C5.2686 48.9626 5.27332 48.974 5.28173 48.9824C5.29014 48.9909 5.30155 48.9956 5.31344 48.9956H8.71938C8.73127 48.9956 8.74268 48.9909 8.75109 48.9824C8.7595 48.974 8.76422 48.9626 8.76422 48.9507V35.0492Z" fill="#52C234"/>
</svg>
