<svg width="264" height="32" viewBox="0 0 264 32" fill="none" xmlns="http://www.w3.org/2000/svg">
  <path d="M0.969281 24.8372C0.323094 24.8372 0 24.5208 0 23.8881V2.70397C0 2.07126 0.323094 1.7549 0.969281 1.7549H9.52822C11.6131 1.7549 13.1859 2.28017 14.2466 3.33072C15.3195 4.38127 15.856 5.92725 15.856 7.96866V9.04309C15.856 11.0726 15.3195 12.6126 14.2466 13.6631C13.1859 14.7137 11.6131 15.2389 9.52822 15.2389H1.92027V23.8881C1.92027 24.5208 1.60328 24.8372 0.969281 24.8372ZM1.92027 13.3587H9.52822C11.0644 13.3587 12.18 13.0185 12.875 12.338C13.5821 11.6456 13.9357 10.5473 13.9357 9.04309V7.96866C13.9357 6.45253 13.5821 5.35423 12.875 4.67376C12.18 3.98135 11.0644 3.63514 9.52822 3.63514H1.92027V13.3587Z" fill="white"/>
  <path d="M20.7578 24.8372C20.1116 24.8372 19.7885 24.5208 19.7885 23.8881V8.84611C19.7885 8.22533 20.1116 7.91494 20.7578 7.91494C21.3918 7.91494 21.7088 8.22533 21.7088 8.84611V11.6038C22.3428 10.41 23.2572 9.49674 24.4521 8.86402C25.6591 8.2313 27.0856 7.91494 28.7315 7.91494C29.3777 7.91494 29.7008 8.22533 29.7008 8.84611C29.7008 9.47883 29.3777 9.79519 28.7315 9.79519C26.5613 9.79519 24.8788 10.2787 23.684 11.2457C22.4891 12.2007 21.8307 13.5676 21.7088 15.3464V23.8881C21.7088 24.5208 21.3918 24.8372 20.7578 24.8372Z" fill="white"/>
  <path d="M38.9701 24.8372C36.6902 24.8372 35.0199 24.3238 33.9591 23.2971C32.8984 22.2585 32.368 20.629 32.368 18.4085V14.3615C32.368 12.1052 32.8984 10.4637 33.9591 9.43705C35.0199 8.39843 36.6902 7.89107 38.9701 7.91494H41.9694C44.2494 7.91494 45.9136 8.43425 46.9621 9.47286C48.0229 10.4995 48.5532 12.1291 48.5532 14.3615V18.3727C48.5532 20.6051 48.0229 22.2406 46.9621 23.2792C45.9136 24.3179 44.2494 24.8372 41.9694 24.8372H38.9701ZM34.2883 18.4085C34.2883 20.0918 34.6297 21.2736 35.3125 21.9541C36.0074 22.6226 37.2266 22.9569 38.9701 22.9569H41.9694C43.7129 22.9569 44.926 22.6226 45.6088 21.9541C46.2916 21.2736 46.6329 20.0798 46.6329 18.3727V14.3615C46.6329 12.6544 46.2916 11.4665 45.6088 10.798C44.926 10.1295 43.7129 9.79519 41.9694 9.79519H38.9701C37.7997 9.78325 36.8731 9.92054 36.1903 10.2071C35.5075 10.4936 35.0199 10.9711 34.7272 11.6396C34.4346 12.3082 34.2883 13.2154 34.2883 14.3615V18.4085Z" fill="white"/>
  <path d="M55.4493 4.65585C54.6203 4.65585 54.2057 4.23205 54.2057 3.38444V2.57862C54.2057 1.7549 54.6203 1.34303 55.4493 1.34303H56.2906C57.1075 1.34303 57.5159 1.7549 57.5159 2.57862V3.38444C57.5159 4.23205 57.1075 4.65585 56.2906 4.65585H55.4493ZM51.8465 32C51.5417 32 51.2979 31.9164 51.115 31.7493C50.9321 31.5941 50.8407 31.3613 50.8407 31.0509C50.8407 30.7405 50.9382 30.5077 51.1333 30.3525C51.3162 30.1974 51.5539 30.1198 51.8465 30.1198C53.017 30.1198 53.8156 29.9049 54.2423 29.4751C54.6812 29.0453 54.9007 28.2574 54.9007 27.1114V8.84611C54.9007 8.22533 55.2238 7.91494 55.87 7.91494C56.504 7.91494 56.821 8.22533 56.821 8.84611V27.1114C56.821 28.7827 56.4186 30.0123 55.6139 30.8002C54.8092 31.6001 53.5535 32 51.8465 32Z" fill="white"/>
  <path d="M65.0784 17.1013V18.4085C65.0784 20.0918 65.4198 21.2736 66.1026 21.9541C66.7975 22.6226 68.0168 22.9569 69.7602 22.9569H72.7595C74.2957 22.9569 75.4113 22.7659 76.1063 22.3839C76.8134 21.9899 77.2341 21.3154 77.3682 20.3604C77.417 20.0619 77.5145 19.8351 77.6608 19.6799C77.8193 19.5247 78.057 19.4471 78.374 19.4471C78.691 19.4471 78.9288 19.5367 79.0873 19.7157C79.258 19.8829 79.325 20.1216 79.2885 20.432C79.13 21.9362 78.5143 23.0464 77.4413 23.7627C76.3684 24.479 74.8078 24.8372 72.7595 24.8372H69.7602C67.4803 24.8372 65.81 24.3238 64.7492 23.2971C63.6885 22.2585 63.1582 20.629 63.1582 18.4085V14.3615C63.1582 12.1052 63.6885 10.4637 64.7492 9.43705C65.81 8.39843 67.4803 7.89107 69.7602 7.91494H72.7595C75.0395 7.91494 76.7037 8.43425 77.7522 9.47286C78.813 10.4995 79.3433 12.1291 79.3433 14.3615V16.1522C79.3433 16.7849 79.0263 17.1013 78.3923 17.1013H65.0784ZM69.7602 9.79519C68.0168 9.77131 66.7975 10.0996 66.1026 10.7801C65.4198 11.4486 65.0784 12.6424 65.0784 14.3615V15.221H77.4231V14.3615C77.4231 12.6544 77.0817 11.4665 76.3989 10.798C75.7161 10.1295 74.503 9.79519 72.7595 9.79519H69.7602Z" fill="white"/>
  <path d="M91.7991 24.8372C89.5192 24.8372 87.8488 24.3179 86.7881 23.2792C85.7274 22.2406 85.197 20.6051 85.197 18.3727V14.3257C85.197 12.0933 85.7213 10.4637 86.7698 9.43705C87.8305 8.39843 89.507 7.89107 91.7991 7.91494H94.7984C96.5906 7.91494 97.9562 8.21339 98.895 8.8103C99.846 9.39526 100.413 10.3205 100.596 11.5859C100.632 11.9082 100.559 12.153 100.376 12.3201C100.206 12.4872 99.9618 12.5708 99.6448 12.5708C99.3522 12.5708 99.1327 12.4992 98.9864 12.3559C98.8401 12.2007 98.7304 11.9799 98.6572 11.6933C98.5231 11.0009 98.1634 10.5115 97.5782 10.225C96.993 9.93845 96.0664 9.79519 94.7984 9.79519H91.7991C90.0556 9.77131 88.8364 10.0936 88.1414 10.7622C87.4587 11.4188 87.1173 12.6066 87.1173 14.3257V18.3727C87.1173 20.0798 87.4587 21.2736 88.1414 21.9541C88.8364 22.6226 90.0556 22.9569 91.7991 22.9569H94.7984C96.0664 22.9569 96.993 22.8137 97.5782 22.5271C98.1634 22.2406 98.5231 21.7452 98.6572 21.0409C98.7304 20.7543 98.8401 20.5395 98.9864 20.3962C99.1327 20.241 99.3522 20.1634 99.6448 20.1634C99.9618 20.1634 100.206 20.2529 100.376 20.432C100.559 20.5991 100.632 20.8379 100.596 21.1483C100.413 22.4137 99.846 23.3449 98.895 23.9418C97.9562 24.5387 96.5906 24.8372 94.7984 24.8372H91.7991Z" fill="white"/>
  <path d="M113.646 24.8372C111.403 24.8372 109.763 24.3298 108.726 23.3151C107.69 22.3003 107.172 20.7006 107.172 18.5159V9.79519H104.996C104.349 9.79519 104.026 9.47883 104.026 8.84611C104.026 8.22533 104.349 7.91494 104.996 7.91494H107.172V4.06491C107.172 3.4322 107.489 3.11584 108.123 3.11584C108.769 3.11584 109.092 3.4322 109.092 4.06491V7.91494H113.683C114.317 7.91494 114.634 8.22533 114.634 8.84611C114.634 9.47883 114.317 9.79519 113.683 9.79519H109.092V18.5159C109.092 20.1873 109.421 21.3453 110.08 21.9899C110.75 22.6346 111.939 22.9569 113.646 22.9569C114 22.9569 114.249 23.0345 114.396 23.1897C114.554 23.3449 114.634 23.5777 114.634 23.8881C114.634 24.5208 114.304 24.8372 113.646 24.8372Z" fill="white"/>
  <path d="M129.845 24.8372C129.54 24.8372 129.302 24.7536 129.132 24.5865C128.961 24.4193 128.876 24.1865 128.876 23.8881V2.68607C128.876 2.38761 128.961 2.15482 129.132 1.98769C129.302 1.82056 129.54 1.73699 129.845 1.73699C130.137 1.73699 130.369 1.82056 130.54 1.98769C130.71 2.15482 130.796 2.38761 130.796 2.68607V23.8881C130.796 24.1865 130.71 24.4193 130.54 24.5865C130.369 24.7536 130.137 24.8372 129.845 24.8372Z" fill="white"/>
  <path d="M156.994 7.87913C158.957 7.87913 160.359 8.36859 161.2 9.34751C162.054 10.3264 162.481 11.944 162.481 14.2003V23.9239C162.481 24.5447 162.164 24.8551 161.53 24.8551C160.883 24.8551 160.56 24.5447 160.56 23.9239V14.2003C160.56 12.6245 160.286 11.4904 159.737 10.798C159.189 10.1056 158.274 9.75937 156.994 9.75937H155.476C153.879 9.75937 152.733 10.1056 152.038 10.798C151.355 11.4904 151.014 12.6245 151.014 14.2003V23.9239C151.014 24.5447 150.697 24.8551 150.063 24.8551C149.417 24.8551 149.094 24.5447 149.094 23.9239V14.2003C149.094 12.6245 148.819 11.4904 148.271 10.798C147.722 10.1056 146.808 9.75937 145.527 9.75937H144.009C142.412 9.75937 141.266 10.1056 140.571 10.798C139.888 11.4904 139.547 12.6245 139.547 14.2003V23.9239C139.547 24.5447 139.23 24.8551 138.596 24.8551C137.95 24.8551 137.627 24.5447 137.627 23.9239V8.84611C137.627 8.22533 137.95 7.91494 138.596 7.91494C139.23 7.91494 139.547 8.22533 139.547 8.84611V10.2429C140.084 9.39526 140.718 8.79239 141.449 8.43425C142.193 8.06417 143.132 7.87913 144.265 7.87913H145.527C146.808 7.87913 147.832 8.09998 148.6 8.54169C149.38 8.97146 149.996 9.68178 150.447 10.6726C150.983 9.68178 151.642 8.97146 152.422 8.54169C153.202 8.09998 154.22 7.87913 155.476 7.87913H156.994Z" fill="white"/>
  <path d="M169.958 32C169.312 32 168.988 31.6836 168.988 31.0509V8.84611C168.988 8.22533 169.312 7.91494 169.958 7.91494C170.592 7.91494 170.909 8.22533 170.909 8.84611V10.4398C171.457 9.60418 172.244 8.97743 173.268 8.5596C174.292 8.12983 175.603 7.91494 177.2 7.91494H178.59C180.87 7.91494 182.534 8.43425 183.582 9.47286C184.643 10.4995 185.174 12.1291 185.174 14.3615V18.3727C185.174 20.6051 184.643 22.2406 183.582 23.2792C182.534 24.3179 180.87 24.8372 178.59 24.8372H170.909V31.0509C170.909 31.6836 170.592 32 169.958 32ZM170.909 22.9569H178.59C180.333 22.9569 181.546 22.6226 182.229 21.9541C182.912 21.2736 183.253 20.0798 183.253 18.3727V14.3615C183.253 12.6544 182.912 11.4665 182.229 10.798C181.546 10.1295 180.333 9.79519 178.59 9.79519H177.2C175.249 9.79519 173.749 10.0936 172.701 10.6905C171.665 11.2874 171.067 12.2067 170.909 13.4482V22.9569Z" fill="white"/>
  <path d="M192.954 17.1013V18.4085C192.954 20.0918 193.295 21.2736 193.978 21.9541C194.673 22.6226 195.892 22.9569 197.636 22.9569H200.635C202.171 22.9569 203.287 22.7659 203.982 22.3839C204.689 21.9899 205.109 21.3154 205.244 20.3604C205.292 20.0619 205.39 19.8351 205.536 19.6799C205.695 19.5247 205.932 19.4471 206.249 19.4471C206.566 19.4471 206.804 19.5367 206.963 19.7157C207.133 19.8829 207.2 20.1216 207.164 20.432C207.005 21.9362 206.39 23.0464 205.317 23.7627C204.244 24.479 202.683 24.8372 200.635 24.8372H197.636C195.356 24.8372 193.685 24.3238 192.625 23.2971C191.564 22.2585 191.034 20.629 191.034 18.4085V14.3615C191.034 12.1052 191.564 10.4637 192.625 9.43705C193.685 8.39843 195.356 7.89107 197.636 7.91494H200.635C202.915 7.91494 204.579 8.43425 205.628 9.47286C206.688 10.4995 207.219 12.1291 207.219 14.3615V16.1522C207.219 16.7849 206.902 17.1013 206.268 17.1013H192.954ZM197.636 9.79519C195.892 9.77131 194.673 10.0996 193.978 10.7801C193.295 11.4486 192.954 12.6424 192.954 14.3615V15.221H205.298V14.3615C205.298 12.6544 204.957 11.4665 204.274 10.798C203.592 10.1295 202.378 9.79519 200.635 9.79519H197.636Z" fill="white"/>
  <path d="M214.535 24.8372C213.889 24.8372 213.566 24.5208 213.566 23.8881V8.84611C213.566 8.22533 213.889 7.91494 214.535 7.91494C215.169 7.91494 215.486 8.22533 215.486 8.84611V11.6038C216.12 10.41 217.035 9.49674 218.23 8.86402C219.437 8.2313 220.863 7.91494 222.509 7.91494C223.155 7.91494 223.478 8.22533 223.478 8.84611C223.478 9.47883 223.155 9.79519 222.509 9.79519C220.339 9.79519 218.656 10.2787 217.462 11.2457C216.267 12.2007 215.608 13.5676 215.486 15.3464V23.8881C215.486 24.5208 215.169 24.8372 214.535 24.8372Z" fill="white"/>
  <path d="M227.903 4.65585C227.061 4.65585 226.641 4.23205 226.641 3.38444V2.57862C226.641 1.7549 227.061 1.34303 227.903 1.34303H228.725C229.542 1.34303 229.951 1.7549 229.951 2.57862V3.38444C229.951 4.23205 229.542 4.65585 228.725 4.65585H227.903ZM228.323 24.8372C227.677 24.8372 227.354 24.5208 227.354 23.8881V8.84611C227.354 8.22533 227.677 7.91494 228.323 7.91494C228.957 7.91494 229.274 8.22533 229.274 8.84611V23.8881C229.274 24.5208 228.957 24.8372 228.323 24.8372Z" fill="white"/>
  <path d="M241.244 24.8372C239.342 24.8372 237.946 24.4074 237.056 23.5478C236.178 22.6764 235.739 21.3095 235.739 19.4471C235.739 17.5848 236.184 16.2179 237.074 15.3464C237.964 14.4749 239.354 14.0392 241.244 14.0392H249.565C249.541 12.4633 249.175 11.365 248.468 10.7443C247.773 10.1115 246.584 9.79519 244.902 9.79519H242.78C241.232 9.79519 240.098 9.95635 239.379 10.2787C238.659 10.601 238.214 11.1502 238.044 11.9261C237.958 12.2246 237.843 12.4454 237.696 12.5887C237.562 12.72 237.343 12.7857 237.038 12.7857C236.721 12.7857 236.471 12.7021 236.288 12.535C236.117 12.3559 236.056 12.1171 236.105 11.8187C236.264 10.4578 236.892 9.46689 237.989 8.84611C239.098 8.22533 240.695 7.91494 242.78 7.91494H244.902C247.182 7.91494 248.846 8.43425 249.895 9.47286C250.955 10.4995 251.486 12.1291 251.486 14.3615V23.8881C251.486 24.5208 251.169 24.8372 250.535 24.8372C249.888 24.8372 249.565 24.5208 249.565 23.8881V22.1153C248.395 23.9299 246.304 24.8372 243.292 24.8372H241.244ZM241.244 22.9569H243.292C244.475 22.9569 245.511 22.8316 246.401 22.5809C247.304 22.3182 248.029 21.9004 248.578 21.3274C249.126 20.7543 249.456 19.9903 249.565 19.0353V15.9194H241.244C239.891 15.9194 238.952 16.1761 238.428 16.6894C237.916 17.1908 237.66 18.1101 237.66 19.4471C237.66 20.7722 237.916 21.6915 238.428 22.2048C238.952 22.7062 239.891 22.9569 241.244 22.9569Z" fill="white"/>
  <path d="M263.03 24.8372C261.299 24.8372 260.025 24.4432 259.208 23.6553C258.403 22.8674 258.001 21.6318 258.001 19.9485V0.93117C258.001 0.31039 258.324 0 258.97 0C259.604 0 259.921 0.31039 259.921 0.93117V19.9485C259.921 21.1065 260.141 21.9004 260.58 22.3302C261.019 22.748 261.829 22.9569 263.012 22.9569C263.671 22.9569 264 23.2673 264 23.8881C264.012 24.5208 263.689 24.8372 263.03 24.8372Z" fill="white"/>
</svg>