<svg width="40" height="40" viewBox="0 0 40 40" fill="none" xmlns="http://www.w3.org/2000/svg">
<rect width="40" height="40" rx="20" fill="#3EC655"/>
<path d="M34 12.5515V27.4533C33.9858 27.5313 33.9748 27.6097 33.9672 27.6885C33.9125 28.255 33.6265 28.786 33.2141 29.1716C32.7336 29.6215 32.1313 29.8463 31.4073 29.8459C23.7528 29.8422 16.2164 29.8422 8.79781 29.8459C8.42302 29.8459 8.13846 29.8251 7.94414 29.7835C7.62404 29.715 7.33474 29.5907 7.07625 29.4106C6.41271 28.9486 6.05396 28.2944 6 27.4478V12.5449C6.05651 11.7024 6.41526 11.0507 7.07625 10.5899C7.33474 10.4094 7.62404 10.2849 7.94414 10.2164C8.12862 10.1766 8.43797 10.1567 8.87219 10.1567C16.4048 10.1557 23.9377 10.1555 31.4707 10.1562C31.8222 10.1562 32.1539 10.2198 32.466 10.3471C32.7752 10.4728 33.0492 10.6571 33.288 10.8999C33.7196 11.3382 33.957 11.8887 34 12.5515ZM18.74 21.5662C19.2686 21.879 19.8383 21.9807 20.449 21.8714C20.9503 21.7817 21.3967 21.5421 21.7883 21.1528C24.9026 18.0549 28.0265 14.9476 31.1601 11.8307C31.1827 11.8081 31.1779 11.7968 31.1459 11.7968H8.84703C8.82005 11.7968 8.81622 11.8065 8.83555 11.8258C11.9487 14.9229 15.0517 18.0095 18.1445 21.0855C18.3216 21.2616 18.5267 21.4399 18.74 21.5662ZM7.66578 27.0257C12.3682 22.3513 14.7194 20.0145 14.7194 20.0153C14.7199 20.0182 14.7204 20.02 14.7208 20.0202C14.7211 20.0205 14.7213 20.0192 14.7212 20.0167C14.7211 20.0142 14.7209 20.0106 14.7204 20.0067C14.72 20.0028 14.7194 19.999 14.7188 19.9961C14.7185 19.9939 12.3696 17.6566 7.67234 12.9841C7.66974 12.9815 7.66643 12.9797 7.66283 12.979C7.65923 12.9783 7.6555 12.9787 7.65211 12.9801C7.64872 12.9815 7.64582 12.9839 7.64377 12.9869C7.64173 12.99 7.64063 12.9935 7.64062 12.9972V27.0147C7.64053 27.0177 7.64133 27.0206 7.64291 27.0231C7.64449 27.0256 7.64679 27.0275 7.6495 27.0287C7.6522 27.0299 7.6552 27.0302 7.65811 27.0297C7.66101 27.0291 7.66368 27.0277 7.66578 27.0257ZM32.3315 27.0235C32.3338 27.0257 32.3368 27.0273 32.34 27.0279C32.3432 27.0285 32.3465 27.0281 32.3495 27.0268C32.3525 27.0255 32.355 27.0234 32.3568 27.0206C32.3585 27.0179 32.3594 27.0147 32.3594 27.0114V12.9928C32.3594 12.9896 32.3585 12.9864 32.3568 12.9836C32.355 12.9809 32.3525 12.9787 32.3495 12.9775C32.3465 12.9762 32.3432 12.9758 32.34 12.9764C32.3368 12.977 32.3338 12.9785 32.3315 12.9808L25.2823 19.9907C25.2793 19.9937 25.2776 19.9978 25.2776 20.0021C25.2776 20.0064 25.2793 20.0106 25.2823 20.0136L32.3315 27.0235ZM22.8804 22.3778C21.2316 23.991 18.652 23.9407 17.0409 22.3028C16.6766 21.9328 16.2984 21.5626 15.9061 21.1921C15.8915 21.1783 15.8771 21.1785 15.8629 21.1927L8.83555 28.1735C8.81586 28.1932 8.81987 28.2031 8.84758 28.2031H31.1404C31.1761 28.2031 31.1812 28.1905 31.1557 28.1653L24.1229 21.1785C24.1184 21.174 24.1123 21.1715 24.1059 21.1715C24.0996 21.1715 24.0935 21.174 24.089 21.1785C23.6777 21.5915 23.2749 21.9913 22.8804 22.3778Z" fill="black"/>
</svg>
