<svg width="240" height="240" viewBox="0 0 240 240" fill="none" xmlns="http://www.w3.org/2000/svg">
<rect width="240" height="240" rx="10" fill="url(#paint0_linear_0_1660)" fill-opacity="0.3"/>
<path d="M120.5 207C168.825 207 208 167.825 208 119.5C208 71.1751 168.825 32 120.5 32C72.1751 32 33 71.1751 33 119.5C33 167.825 72.1751 207 120.5 207Z" fill="white"/>
<path d="M120 26C101.408 26 83.2345 31.513 67.7763 41.8419C52.3182 52.1707 40.27 66.8515 33.1553 84.0277C26.0407 101.204 24.1792 120.104 27.8062 138.338C31.4332 156.573 40.3858 173.322 53.5319 186.468C66.678 199.614 83.4272 208.567 101.661 212.194C119.896 215.821 138.796 213.959 155.972 206.845C173.148 199.73 187.829 187.682 198.158 172.224C208.487 156.765 214 138.591 214 120C214.036 107.692 211.647 95.4966 206.97 84.1114C202.293 72.7262 195.419 62.3737 186.741 53.645C178.063 44.9163 167.751 37.9823 156.393 33.2389C145.035 28.4956 132.854 26.0358 120.546 26H120ZM121.593 123.186L111.806 156.189H164.155C164.501 156.177 164.847 156.233 165.172 156.355C165.497 156.476 165.795 156.661 166.049 156.897C166.302 157.134 166.507 157.418 166.651 157.734C166.794 158.05 166.874 158.391 166.886 158.738V159.603L162.334 175.307C162.133 176.05 161.686 176.703 161.066 177.157C160.445 177.612 159.689 177.843 158.92 177.811H78.8038L92.2323 132.063L77.2106 136.615L80.6246 126.145L95.6464 121.593L114.537 57.4092C114.745 56.6707 115.194 56.023 115.813 55.5693C116.432 55.1156 117.185 54.8819 117.951 54.9056H138.208C138.555 54.8934 138.901 54.9497 139.226 55.0713C139.551 55.1928 139.848 55.3773 140.102 55.614C140.356 55.8508 140.56 56.1352 140.704 56.451C140.848 56.7669 140.927 57.1079 140.939 57.4547V58.3196L125.007 112.489L140.029 107.937L136.842 118.862L121.593 123.186Z" fill="#345D9D"/>
<defs>
<linearGradient id="paint0_linear_0_1660" x1="120" y1="-53.2353" x2="120" y2="292.647" gradientUnits="userSpaceOnUse">
<stop stop-color="#52C234" stop-opacity="0"/>
<stop offset="1" stop-color="#52C234"/>
</linearGradient>
</defs>
</svg>
