<svg width="240" height="240" viewBox="0 0 240 240" fill="none" xmlns="http://www.w3.org/2000/svg">
<rect width="240" height="240" rx="10" fill="url(#paint0_linear_0_1664)" fill-opacity="0.3"/>
<path d="M168.35 83.4599C164.914 81.2285 160.496 81.2285 156.569 83.4599L129.081 101.869L110.428 113.585L83.4308 131.994C79.9948 134.226 75.577 134.226 71.6501 131.994L50.5431 117.49C47.107 115.258 44.6527 110.795 44.6527 105.774V77.8813C44.6527 73.4184 46.6162 68.9555 50.5431 66.1662L71.6501 52.2196C75.0862 49.9881 79.5039 49.9881 83.4308 52.2196L104.538 66.724C107.974 68.9555 110.428 73.4184 110.428 78.4392V96.8487L129.081 84.5757V65.6083C129.081 61.1454 127.117 56.6825 123.191 53.8932L83.9217 27.6736C80.4856 25.4421 76.0679 25.4421 72.141 27.6736L31.8903 54.451C27.9634 56.6825 26 61.1454 26 65.6083V118.047C26 122.51 27.9634 126.973 31.8903 129.763L71.6501 155.982C75.0862 158.214 79.5039 158.214 83.4308 155.982L110.428 138.131L129.081 125.858L156.078 108.006C159.514 105.774 163.932 105.774 167.859 108.006L188.966 121.953C192.402 124.184 194.856 128.647 194.856 133.668V161.561C194.856 166.024 192.893 170.487 188.966 173.276L168.35 187.223C164.914 189.454 160.496 189.454 156.569 187.223L135.462 173.276C132.026 171.044 129.572 166.582 129.572 161.561V143.709L110.919 155.982V174.392C110.919 178.855 112.883 183.318 116.809 186.107L156.569 212.326C160.005 214.558 164.423 214.558 168.35 212.326L208.11 186.107C211.546 183.875 214 179.412 214 174.392V121.395C214 116.932 212.037 112.469 208.11 109.68L168.35 83.4599Z" fill="#8247E5"/>
<defs>
<linearGradient id="paint0_linear_0_1664" x1="120" y1="-53.2353" x2="120" y2="292.647" gradientUnits="userSpaceOnUse">
<stop stop-color="#52C234" stop-opacity="0"/>
<stop offset="1" stop-color="#52C234"/>
</linearGradient>
</defs>
</svg>
