<svg width="240" height="240" viewBox="0 0 240 240" fill="none" xmlns="http://www.w3.org/2000/svg">
<rect width="240" height="240" rx="10" fill="url(#paint0_linear_0_1667)" fill-opacity="0.3"/>
<path d="M40 130.435C68.0151 143.953 97.2482 158.104 119.827 169.053L199 130.435C170.333 169.131 146.447 201.347 119.827 237C93.1594 201.425 63.7088 162.171 40 130.435ZM43.045 119.761L119.913 82.4918L195.781 119.489L119.956 156.799L43.045 119.761ZM119.827 70.5512L40 108.734L119.478 3L199 108.971L119.827 70.5512Z" fill="#3AB83A"/>
<path d="M119.827 169.053L199 130.435C170.333 169.131 119.827 237 119.827 237V169.053ZM119.913 82.4918L195.781 119.489L119.957 156.799L119.913 82.4918ZM119.827 70.554L119.479 3L199 108.971L119.827 70.554Z" fill="#0B8311"/>
<path d="M43.0449 119.762L119.917 125.494L195.785 119.526L119.956 156.839L43.0449 119.762Z" fill="#0B8311"/>
<path d="M119.913 125.494L195.781 119.526L119.956 156.839L119.913 125.494Z" fill="#146714"/>
<defs>
<linearGradient id="paint0_linear_0_1667" x1="120" y1="-53.2353" x2="120" y2="292.647" gradientUnits="userSpaceOnUse">
<stop stop-color="#52C234" stop-opacity="0"/>
<stop offset="1" stop-color="#52C234"/>
</linearGradient>
</defs>
</svg>
