<svg width="240" height="240" viewBox="0 0 240 240" fill="none" xmlns="http://www.w3.org/2000/svg">
<rect width="240" height="240" rx="10" fill="url(#paint0_linear_0_1680)" fill-opacity="0.3"/>
<path d="M214 26H26V214H214V26Z" fill="black" stroke="black" stroke-miterlimit="10"/>
<path d="M185.415 80.2211C183.194 78.4692 180.544 76.0765 175.716 75.4783C171.187 74.8802 166.573 77.9138 163.454 79.922C160.334 81.9302 154.438 87.8265 152.003 89.6211C149.567 91.4156 143.329 93.082 133.288 99.1065C123.247 105.131 83.8527 130.426 83.8527 130.426L94.1072 130.554L48.389 154.097H52.9609L46.3809 159.096C46.3809 159.096 52.1918 160.634 57.0627 157.557V158.967C57.0627 158.967 111.497 137.518 122.008 143.073L115.599 144.953C116.154 144.953 126.494 145.637 126.494 145.637C126.745 147.778 127.465 149.837 128.602 151.669C129.74 153.5 131.267 155.058 133.075 156.233C139.313 160.335 139.441 162.599 139.441 162.599C139.441 162.599 136.194 163.924 136.194 165.59C136.194 165.59 140.979 164.137 145.423 164.266C148.243 164.373 151.04 164.817 153.755 165.59C153.755 165.59 153.413 163.796 149.097 162.599C144.782 161.403 140.509 156.703 138.415 154.139C137.133 152.507 136.297 150.57 135.99 148.517C135.683 146.465 135.915 144.368 136.664 142.432C138.159 138.544 143.372 136.407 154.139 130.853C166.829 124.273 169.734 119.402 171.529 115.599C173.324 111.797 175.973 104.234 177.468 100.687C179.348 96.1156 181.655 93.6802 183.578 92.2274C185.501 90.7747 194.046 87.5702 194.046 87.5702C194.046 87.5702 187.509 81.8874 185.415 80.2211Z" fill="white"/>
<defs>
<linearGradient id="paint0_linear_0_1680" x1="120" y1="-53.2353" x2="120" y2="292.647" gradientUnits="userSpaceOnUse">
<stop stop-color="#52C234" stop-opacity="0"/>
<stop offset="1" stop-color="#52C234"/>
</linearGradient>
</defs>
</svg>
