<svg width="240" height="240" viewBox="0 0 240 240" fill="none" xmlns="http://www.w3.org/2000/svg">
<rect width="240" height="240" rx="10" fill="url(#paint0_linear_0_1685)" fill-opacity="0.3"/>
<path d="M77.5389 119.322C77.1379 126.863 82.5019 133.319 89.4701 133.753C89.7208 133.753 89.9714 133.753 90.2221 133.753C97.2404 133.753 102.905 127.622 102.855 120.027C102.855 112.432 97.1903 106.301 90.172 106.356C83.4544 106.356 77.8898 112.052 77.5389 119.322Z" fill="#0033AD"/>
<path d="M30.3155 115.795C28.0596 115.633 26.1045 117.532 26.0042 119.973C25.9039 122.414 27.6084 124.53 29.8643 124.639C32.1202 124.801 34.0252 122.903 34.1756 120.461C34.326 118.02 32.5714 115.958 30.3155 115.795Z" fill="#0033AD"/>
<path d="M76.7368 39.7882C78.7421 38.7032 79.5442 35.9906 78.5416 33.8205C77.5389 31.6504 75.0324 30.7823 73.0271 31.8674C71.0219 32.9524 70.2198 35.6108 71.2224 37.7809C72.225 40.0052 74.6815 40.9275 76.7368 39.7882Z" fill="#0033AD"/>
<path d="M89.5705 64.039C92.6787 62.3572 93.9319 58.2341 92.3779 54.8704C90.8238 51.5068 87.0138 50.1505 83.9057 51.8323C80.7976 53.5141 79.5443 57.6373 81.0984 61.0009C82.6524 64.3646 86.4624 65.7209 89.5705 64.039Z" fill="#0033AD"/>
<path d="M46.3574 80.6944C48.7637 82.3762 51.9721 81.671 53.5763 79.0669C55.1303 76.4628 54.4786 72.9906 52.0723 71.2545C49.666 69.5727 46.4576 70.278 44.8534 72.8821C43.2492 75.4862 43.9511 79.0126 46.3574 80.6944Z" fill="#0033AD"/>
<path d="M54.0274 113.354C50.5183 113.137 47.5605 116.013 47.36 119.81C47.1595 123.608 49.8164 126.809 53.3256 127.026C56.8348 127.243 59.7925 124.367 59.993 120.57C60.1936 116.826 57.5366 113.571 54.0274 113.354Z" fill="#0033AD"/>
<path d="M47.0592 159.306C44.5025 160.716 43.4498 164.08 44.7532 166.901C46.0566 169.668 49.1647 170.807 51.7715 169.397C54.3282 167.986 55.381 164.623 54.0776 161.801C52.7742 159.035 49.6159 157.895 47.0592 159.306Z" fill="#0033AD"/>
<path d="M71.6235 99.1943C75.0826 101.636 79.6946 100.605 81.9004 96.8614C84.1563 93.118 83.2038 88.1268 79.7448 85.7397C76.2857 83.2984 71.6737 84.3292 69.4679 88.0726C67.212 91.7617 68.1645 96.7529 71.6235 99.1943Z" fill="#0033AD"/>
<path d="M149.577 63.4965C152.485 65.5581 156.445 64.69 158.35 61.5434C160.255 58.3968 159.453 54.1108 156.546 52.0493C153.638 49.9877 149.678 50.8557 147.773 54.0023C145.817 57.2032 146.62 61.4349 149.577 63.4965Z" fill="#0033AD"/>
<path d="M162.511 39.3542C164.416 40.7105 166.923 40.1137 168.176 38.0521C169.429 35.9905 168.878 33.2779 166.973 31.9216C165.068 30.5653 162.561 31.1621 161.308 33.1694C160.105 35.231 160.656 37.9979 162.511 39.3542Z" fill="#0033AD"/>
<path d="M150.53 106.247C143.562 105.813 137.546 111.618 137.195 119.159C136.794 126.7 142.158 133.211 149.126 133.59C149.377 133.59 149.627 133.59 149.828 133.59C156.796 133.59 162.461 127.46 162.461 119.865C162.511 112.649 157.247 106.627 150.53 106.247Z" fill="#0033AD"/>
<path d="M93.7313 98.2176C95.8869 102.829 100.248 105.759 105.061 105.759C112.029 105.759 117.694 99.6282 117.694 92.0328C117.694 89.917 117.243 87.8012 116.34 85.8481C113.182 79.0666 105.562 76.354 99.346 79.7718C93.0796 83.244 90.573 91.4903 93.7313 98.2176Z" fill="#0033AD"/>
<path d="M192.941 80.6944C195.497 79.2839 196.5 75.866 195.197 73.0991C193.893 70.3322 190.735 69.2472 188.178 70.6578C185.622 72.0683 184.619 75.432 185.872 78.1988C187.226 80.9657 190.334 82.105 192.941 80.6944Z" fill="#0033AD"/>
<path d="M160.857 85.0345C157.197 87.0419 155.693 91.8703 157.548 95.8307C159.403 99.7911 163.865 101.419 167.524 99.4114C171.184 97.404 172.688 92.5756 170.833 88.6152C168.978 84.6548 164.516 83.0814 160.857 85.0345Z" fill="#0033AD"/>
<path d="M119.499 37.2925C122.356 37.4552 124.813 35.0681 125.013 31.9758C125.214 28.8834 122.958 26.225 120.1 26.008C117.243 25.8453 114.786 28.1781 114.586 31.2705C114.435 34.4171 116.641 37.0755 119.499 37.2925Z" fill="#0033AD"/>
<path d="M119.448 72.719C123.559 72.9903 127.068 69.5724 127.269 65.1237C127.52 60.675 124.361 56.8774 120.251 56.6604C116.14 56.3891 112.631 59.807 112.43 64.2557C112.23 68.7044 115.338 72.502 119.448 72.719Z" fill="#0033AD"/>
<path d="M79.1431 154.966C82.8027 152.958 84.3066 148.13 82.4517 144.169C80.5969 140.209 76.1352 138.582 72.4756 140.589C68.8161 142.596 67.3121 147.425 69.167 151.385C71.0218 155.345 75.4835 156.973 79.1431 154.966Z" fill="#0033AD"/>
<path d="M124.261 84.4919C120.451 90.8394 122.055 99.3027 127.921 103.426C133.786 107.549 141.606 105.813 145.416 99.4655C149.226 93.118 147.622 84.6546 141.757 80.5315C139.701 79.0667 137.295 78.3071 134.839 78.3071C130.578 78.3071 126.617 80.64 124.261 84.4919Z" fill="#0033AD"/>
<path d="M146.269 141.782C143.11 135.001 135.49 132.288 129.274 135.706C123.008 139.124 120.501 147.37 123.66 154.098C126.818 160.879 134.438 163.592 140.654 160.174C146.87 156.81 149.427 148.672 146.319 141.891C146.319 141.837 146.319 141.837 146.269 141.782Z" fill="#0033AD"/>
<path d="M168.377 140.806C164.918 138.365 160.305 139.395 158.1 143.139C155.844 146.882 156.796 151.873 160.255 154.26C163.714 156.702 168.326 155.671 170.532 151.928C172.788 148.238 171.836 143.247 168.377 140.806Z" fill="#0033AD"/>
<path d="M192.64 120.244C192.841 116.447 190.184 113.246 186.674 113.029C183.165 112.812 180.208 115.687 180.007 119.485C179.806 123.282 182.463 126.483 185.973 126.7C189.432 126.917 192.439 123.988 192.64 120.244Z" fill="#0033AD"/>
<path d="M210.136 115.361C207.88 115.199 205.925 117.097 205.825 119.539C205.724 121.98 207.429 124.096 209.685 124.205C211.941 124.367 213.845 122.468 213.996 120.027C214.096 117.586 212.392 115.524 210.136 115.361Z" fill="#0033AD"/>
<path d="M193.642 159.306C191.236 157.624 188.028 158.329 186.424 160.933C184.87 163.538 185.521 167.01 187.928 168.746C190.334 170.428 193.542 169.722 195.146 167.118C196.751 164.514 196.049 160.988 193.642 159.306Z" fill="#0033AD"/>
<path d="M77.4386 200.646C75.5336 199.29 73.0271 199.886 71.7738 201.894C70.5205 203.955 71.072 206.668 72.9268 208.024C74.8318 209.381 77.3384 208.784 78.5916 206.776C79.895 204.769 79.3436 202.002 77.4386 200.646Z" fill="#0033AD"/>
<path d="M163.263 200.212C161.258 201.297 160.456 204.01 161.458 206.18C162.461 208.35 164.968 209.218 166.973 208.133C168.978 207.048 169.78 204.389 168.778 202.219C167.775 199.995 165.319 199.073 163.263 200.212Z" fill="#0033AD"/>
<path d="M115.739 155.508C119.549 149.161 117.945 140.697 112.079 136.52C106.214 132.397 98.3936 134.133 94.5335 140.48C90.6734 146.828 92.3277 155.291 98.1931 159.469C100.248 160.934 102.655 161.693 105.111 161.693C109.422 161.747 113.383 159.414 115.739 155.508Z" fill="#0033AD"/>
<path d="M90.4227 176.504C87.5151 174.442 83.5547 175.31 81.6497 178.457C79.7448 181.603 80.5469 185.889 83.4545 187.951C86.3621 190.013 90.3224 189.144 92.2274 185.998C94.1825 182.851 93.3804 178.565 90.4227 176.504Z" fill="#0033AD"/>
<path d="M119.95 202.708C117.092 202.545 114.636 204.932 114.436 208.024C114.235 211.117 116.491 213.775 119.348 213.992C122.206 214.155 124.662 211.822 124.863 208.73C125.013 205.583 122.807 202.925 119.95 202.708Z" fill="#0033AD"/>
<path d="M120 167.281C115.889 167.009 112.38 170.427 112.179 174.876C111.929 179.325 115.087 183.122 119.198 183.339C123.309 183.556 126.818 180.193 127.018 175.744C127.269 171.35 124.111 167.498 120 167.281Z" fill="#0033AD"/>
<path d="M150.43 175.961C147.321 177.697 146.068 181.821 147.672 185.184C149.277 188.548 153.087 189.904 156.195 188.168C159.303 186.486 160.556 182.363 159.002 178.999C157.398 175.636 153.588 174.225 150.43 175.961Z" fill="#0033AD"/>
<defs>
<linearGradient id="paint0_linear_0_1685" x1="120" y1="-53.2353" x2="120" y2="292.647" gradientUnits="userSpaceOnUse">
<stop stop-color="#52C234" stop-opacity="0"/>
<stop offset="1" stop-color="#52C234"/>
</linearGradient>
</defs>
</svg>
