<svg width="56" height="56" viewBox="0 0 56 56" fill="none" xmlns="http://www.w3.org/2000/svg">
<path d="M38.5055 21.9373C38.3939 25.368 37.0045 28.1326 34.3372 30.2312C34.1469 30.3807 33.8005 30.6114 33.2981 30.9235C33.266 30.9439 33.25 30.9731 33.25 31.011V33.2182C33.25 33.2269 33.2535 33.2353 33.2596 33.2414C33.2658 33.2476 33.2741 33.251 33.2828 33.251C35.1021 33.2452 36.0303 33.2423 36.0675 33.2423C37.0511 33.2539 37.7792 33.2857 38.2517 33.3374C44.3045 33.9959 49.1564 38.9309 49.7864 44.9443C49.8535 45.5838 49.8852 46.2951 49.8816 47.0782C49.8714 49.2351 49.8699 51.5877 49.8772 54.1362C49.8794 54.7181 49.5228 55.1293 48.9617 55.1293C34.7699 55.1257 20.7958 55.1242 7.03938 55.1249C6.63542 55.1249 6.36344 54.9682 6.22344 54.6546C6.14688 54.4825 6.11005 54.2189 6.11297 53.8638C6.13339 51.5655 6.13521 49.2788 6.11844 47.0038C6.11187 46.2127 6.14542 45.4912 6.21906 44.8393C6.69156 40.6568 9.21266 36.9534 12.8942 34.8982C14.9242 33.7651 17.1865 33.2135 19.6809 33.2434C20.7061 33.2558 21.7098 33.2576 22.692 33.2488C22.7307 33.2481 22.75 33.2284 22.75 33.1898V31.011C22.75 30.9782 22.7361 30.9531 22.7084 30.9356C19.483 28.9592 17.5602 25.7381 17.5044 21.9438C17.5036 21.8972 17.4799 21.8731 17.4333 21.8717C13.6369 21.7502 12.6897 16.6118 16.1897 15.1418C16.2334 15.1229 16.2462 15.0911 16.228 15.0467C15.2881 12.8263 14.8356 10.403 14.8706 7.7765C14.8961 5.82233 15.5797 4.1817 16.9214 2.85462C17.9204 1.86587 19.1155 1.24243 20.5067 0.984308C20.9807 0.896808 21.6789 0.857433 22.6012 0.866183C24.3775 0.883683 26.2099 0.884048 28.0984 0.867277C29.3727 0.85634 30.3603 1.13743 31.2834 2.03978C31.7548 2.50025 32.3312 2.64025 32.9973 2.6315C33.7367 2.62165 34.4936 2.58775 35.1991 2.68946C38.4869 3.16743 40.95 5.83181 41.1119 9.16337C41.2081 11.1562 40.6864 13.3021 39.8081 15.0762C39.8049 15.0828 39.803 15.0899 39.8026 15.0972C39.8022 15.1046 39.8034 15.1119 39.8059 15.1187C39.8085 15.1256 39.8124 15.1319 39.8175 15.1372C39.8226 15.1425 39.8287 15.1466 39.8355 15.1495C42.035 16.0857 42.6989 18.8999 41.0977 20.6926C40.4327 21.4371 39.5905 21.8301 38.5711 21.8717C38.5288 21.8731 38.5069 21.895 38.5055 21.9373ZM19.0695 13.3579C19.421 13.2026 19.7181 13.1271 19.9609 13.1315C24.8383 13.2081 29.0059 11.5962 32.4636 8.29603C32.6401 8.12759 32.7881 8.01348 32.9077 7.95368C33.2686 7.77322 33.6984 7.91759 33.9533 8.22384C35.0113 9.49551 36.0846 10.7832 37.1733 12.087C37.6728 12.6856 38.0403 13.3586 38.2758 14.106C38.2896 14.152 38.3068 14.1534 38.3272 14.1104C38.9142 12.8606 39.258 11.5142 39.3586 10.0712C39.4775 8.37223 38.971 6.96056 37.8394 5.83618C36.9009 4.90431 35.5698 4.36181 34.2519 4.37931C32.8617 4.3979 31.6323 4.48759 30.4664 3.62572C30.0037 3.28446 29.6789 2.85353 29.0642 2.7004C28.8331 2.6428 28.5906 2.61509 28.3369 2.61728C26.4381 2.63259 24.5365 2.63186 22.6319 2.61509C21.7175 2.6078 21.0569 2.65045 20.65 2.74306C18.4866 3.23634 16.8011 5.06837 16.6578 7.2504C16.4989 9.67561 16.8915 12.0505 17.8358 14.3751C17.8382 14.3814 17.8424 14.3868 17.8478 14.3909C17.8532 14.3949 17.8596 14.3973 17.8663 14.3979C17.8731 14.3985 17.8798 14.3971 17.8858 14.3941C17.8918 14.391 17.8968 14.3863 17.9003 14.3806C18.184 13.9168 18.5737 13.5759 19.0695 13.3579ZM24.3939 29.8429C29.6002 32.1802 35.5731 29.0521 36.6122 23.4106C36.7186 22.8316 36.7617 22.1192 36.7413 21.2734C36.7369 21.11 36.7398 19.227 36.75 15.6242C36.7529 14.7477 36.458 13.9569 35.8652 13.2518C35.0142 12.2383 34.1348 11.1824 33.227 10.0843C33.1971 10.0478 33.1643 10.0453 33.1286 10.0767C29.4324 13.3251 25.1016 14.9263 20.1359 14.8804C19.6252 14.8749 19.2445 15.2796 19.2478 15.7849C19.2551 16.9647 19.2533 18.7876 19.2423 21.2537C19.2387 22.1316 19.2861 22.8465 19.3845 23.3985C19.8898 26.2324 21.7602 28.6606 24.3939 29.8429ZM17.5033 20.0998L17.4967 16.6501C17.4967 16.6457 17.495 16.6416 17.4919 16.6385C17.4888 16.6354 17.4847 16.6337 17.4803 16.6337H17.4748C17.0179 16.6346 16.5799 16.8175 16.2573 17.1424C15.9347 17.4673 15.7538 17.9075 15.7544 18.3662V18.3881C15.7547 18.6154 15.7996 18.8404 15.8865 19.0503C15.9735 19.2602 16.1008 19.4508 16.2612 19.6113C16.4216 19.7718 16.6119 19.899 16.8213 19.9856C17.0306 20.0722 17.2549 20.1166 17.4814 20.1162H17.4869C17.4912 20.1162 17.4954 20.1145 17.4985 20.1114C17.5016 20.1083 17.5033 20.1041 17.5033 20.0998ZM38.5 16.649V20.0987C38.5 20.1027 38.5016 20.1066 38.5045 20.1095C38.5074 20.1124 38.5113 20.114 38.5153 20.114H38.523C38.7492 20.114 38.9732 20.0692 39.1822 19.9822C39.3912 19.8952 39.5811 19.7677 39.7411 19.6069C39.901 19.4461 40.0279 19.2552 40.1145 19.0452C40.2011 18.8351 40.2456 18.61 40.2456 18.3826V18.3651C40.2456 17.9059 40.0641 17.4655 39.7411 17.1408C39.418 16.8161 38.9798 16.6337 38.523 16.6337H38.5153C38.5113 16.6337 38.5074 16.6353 38.5045 16.6382C38.5016 16.641 38.5 16.6449 38.5 16.649ZM31.4333 31.7843C29.1342 32.5795 26.8723 32.5412 24.5612 31.7876C24.519 31.7737 24.4978 31.789 24.4978 31.8335C24.5007 32.4876 24.5004 33.1096 24.4967 33.6995C24.496 33.838 24.5284 33.9725 24.5941 34.1031C25.709 36.3401 26.8322 38.5871 27.9639 40.8438C27.9887 40.8927 28.0135 40.8927 28.0383 40.8438C29.1473 38.6213 30.2732 36.37 31.4158 34.0899C31.477 33.9674 31.5069 33.8355 31.5055 33.694C31.4982 33.0691 31.4971 32.4489 31.5022 31.8335C31.5029 31.7847 31.4799 31.7683 31.4333 31.7843ZM19.6711 41.8971C18.9077 42.2777 18.1464 41.5723 18.445 40.7749C19.1858 38.8004 19.9004 36.8976 20.5888 35.0667C20.6019 35.0317 20.5895 35.0134 20.5516 35.012C19.5956 34.9719 18.7286 34.9952 17.9506 35.082C12.6634 35.6737 8.53125 39.8912 7.94828 45.1401C7.88995 45.6709 7.86333 46.3979 7.86844 47.321C7.8801 49.3065 7.8812 51.2797 7.87172 53.2404C7.87099 53.3301 7.91547 53.3749 8.00516 53.3749H24.5514C24.5655 53.375 24.5792 53.3698 24.5899 53.3604C24.6006 53.3509 24.6075 53.3378 24.6094 53.3235L25.3313 47.554C25.3383 47.4975 25.3247 47.4405 25.293 47.3932C24.7702 46.6152 24.2663 45.8598 23.7814 45.127C23.6341 44.9046 23.59 44.6738 23.6491 44.4346C23.8715 43.5319 24.1099 42.5774 24.3644 41.5712C24.3682 41.5552 24.3671 41.5383 24.361 41.5229C24.3549 41.5074 24.3443 41.4941 24.3305 41.4848L22.7248 40.4118C22.7001 40.3958 22.6745 40.3943 22.6483 40.4074C21.6632 40.9018 20.6708 41.3984 19.6711 41.8971ZM22.4613 35.0513L20.8786 39.2787C20.8626 39.321 20.8749 39.3323 20.9158 39.3126C21.3416 39.107 21.7722 38.89 22.2075 38.6618C22.5958 38.4595 22.9338 38.4431 23.2991 38.687C24.1099 39.2302 24.8927 39.7512 25.6473 40.2499C25.7093 40.2908 25.7235 40.278 25.69 40.2117L23.1208 35.0732C23.096 35.0244 23.0562 34.9999 23.0016 34.9999H22.5367C22.4995 34.9999 22.4744 35.0171 22.4613 35.0513ZM30.3702 40.2445C31.1781 39.7056 31.9659 39.1806 32.7337 38.6695C33.0349 38.4689 33.3576 38.4533 33.7017 38.6224C34.1531 38.8448 34.6084 39.0731 35.0678 39.3071C35.1225 39.3348 35.1393 39.3199 35.1181 39.2623L33.5475 35.0776C33.5285 35.0258 33.4914 34.9999 33.4359 34.9999H32.9984C32.9438 34.9999 32.904 35.0244 32.8792 35.0732L30.3188 40.1985C30.2786 40.2795 30.2958 40.2948 30.3702 40.2445ZM32.2273 45.1051C31.7373 45.8518 31.2277 46.617 30.6983 47.4009C30.6722 47.4397 30.6609 47.4866 30.6666 47.5332L31.3906 53.3235C31.395 53.3578 31.4143 53.3749 31.4486 53.3749H48.0397C48.0623 53.3749 48.084 53.3659 48.1 53.3499C48.116 53.3339 48.125 53.3122 48.125 53.2896C48.1214 51.2961 48.1235 49.2807 48.1316 47.2434C48.1345 46.3494 48.1082 45.6505 48.0528 45.1467C47.8013 42.8848 46.9623 40.8938 45.5361 39.1737C43.4412 36.6457 40.7148 35.2595 37.357 35.0152C36.7237 34.9693 36.0828 35.0163 35.4233 34.9945C35.4192 34.9944 35.4151 34.9953 35.4115 34.9972C35.4078 34.999 35.4047 35.0017 35.4023 35.0051C35.3999 35.0084 35.3984 35.0123 35.3979 35.0163C35.3973 35.0204 35.3978 35.0245 35.3992 35.0284C36.0861 36.8673 36.8047 38.7836 37.555 40.7771C37.8623 41.5952 37.0759 42.2712 36.295 41.8796C35.4215 41.4421 34.4477 40.9529 33.3736 40.4118C33.3342 40.3921 33.2963 40.3943 33.2598 40.4184L31.6509 41.4902C31.6429 41.4957 31.6367 41.5035 31.6332 41.5127C31.6297 41.5219 31.629 41.532 31.6313 41.5417C31.8821 42.5399 32.1198 43.4914 32.3444 44.3963C32.4078 44.6537 32.3688 44.89 32.2273 45.1051ZM28.5709 43.5476C28.2516 43.7652 27.8775 43.8363 27.5406 43.6143C27.0426 43.2876 26.5176 42.9391 25.9656 42.5687C25.9609 42.5654 25.9554 42.5633 25.9496 42.5627C25.9438 42.562 25.938 42.5628 25.9325 42.565C25.927 42.5671 25.9221 42.5706 25.9182 42.575C25.9142 42.5795 25.9114 42.5848 25.9098 42.5906L25.4581 44.4018C25.4479 44.4419 25.4541 44.4791 25.4767 44.5134L26.6864 46.3268C26.7083 46.3589 26.7385 46.3749 26.7772 46.3749H29.225C29.2636 46.3749 29.2935 46.3589 29.3147 46.3268L30.5156 44.5112C30.526 44.4956 30.533 44.4781 30.5362 44.4596C30.5394 44.4412 30.5387 44.4222 30.5342 44.404L30.0825 42.5971C30.081 42.5912 30.0782 42.5857 30.0742 42.5811C30.0702 42.5765 30.0651 42.5729 30.0594 42.5707C30.0538 42.5685 30.0476 42.5676 30.0416 42.5682C30.0355 42.5688 30.0297 42.5708 30.0245 42.5742C29.5207 42.9059 29.0361 43.2304 28.5709 43.5476ZM28.9822 48.1567C28.9811 48.1479 28.9768 48.1398 28.9702 48.1339C28.9635 48.1281 28.955 48.1249 28.9461 48.1249H27.0539C27.045 48.1249 27.0365 48.1281 27.0298 48.1339C27.0232 48.1398 27.0189 48.1479 27.0178 48.1567L26.3714 53.3345C26.3708 53.3395 26.3712 53.3445 26.3727 53.3494C26.3742 53.3542 26.3766 53.3586 26.3799 53.3625C26.3832 53.3663 26.3873 53.3694 26.3918 53.3715C26.3964 53.3736 26.4014 53.3748 26.4064 53.3749H29.5936C29.5986 53.3748 29.6036 53.3736 29.6082 53.3715C29.6127 53.3694 29.6168 53.3663 29.6201 53.3625C29.6234 53.3586 29.6258 53.3542 29.6273 53.3494C29.6288 53.3445 29.6292 53.3395 29.6286 53.3345L28.9822 48.1567Z" fill="#52C234"/>
</svg>
