<svg width="24" height="24" viewBox="0 0 24 24" fill="none" xmlns="http://www.w3.org/2000/svg">
<path d="M18.2495 6L4.74916 6C4.61248 6.00042 4.4785 6.03735 4.36165 6.1068C4.24479 6.17626 4.14949 6.27561 4.086 6.39418C4.02251 6.51274 3.99323 6.64602 4.00132 6.77967C4.0094 6.91331 4.05455 7.04227 4.1319 7.15266L10.8821 16.703C11.1618 17.099 11.8354 17.099 12.1159 16.703L18.8661 7.15266C18.9442 7.0425 18.99 6.91348 18.9985 6.77961C19.0071 6.64574 18.978 6.51214 18.9144 6.39332C18.8509 6.27451 18.7553 6.17503 18.6381 6.10568C18.5209 6.03634 18.3865 5.99979 18.2495 6Z" fill="#FF0000"/>
</svg>
