<svg width="56" height="56" viewBox="0 0 56 56" fill="none" xmlns="http://www.w3.org/2000/svg">
<path d="M28.2855 56H27.7834C24.3702 54.1392 21.2075 51.9375 18.2952 49.3949C13.6238 45.3163 10.0286 40.156 7.69891 34.3547C4.63751 26.7313 3.57438 18.5205 3.31298 10.3392C3.2911 9.67752 3.71329 9.18424 4.40891 9.32753C8.36464 10.1391 12.2092 9.92836 15.9425 8.69534C20.5465 7.17502 24.3396 4.41002 27.3219 0.400337C27.7605 -0.189194 28.4583 -0.0262253 28.8433 0.515181C29.1131 0.894348 29.4077 1.27206 29.727 1.64831C35.1181 8.00737 43.2523 10.9802 51.4599 9.36581C51.7953 9.30018 52.0374 9.29617 52.1861 9.35378C52.558 9.49706 52.757 9.83831 52.7461 10.2299C52.5219 18.3575 51.45 26.6438 48.4127 34.2333C46.3396 39.4133 43.404 43.8926 39.6058 47.6711C36.295 50.9644 32.3925 53.7425 28.2855 56ZM45.3228 36.7533C47.2544 32.8705 48.5855 28.7296 49.4484 24.4486C50.3081 20.183 50.8083 15.7985 50.9491 11.2952C50.9498 11.2602 50.933 11.2452 50.8988 11.2503C46.8074 11.8636 42.9257 11.5322 39.2536 10.2561C34.8079 8.71247 31.0764 6.09002 28.0591 2.38877C28.0556 2.38444 28.0512 2.38094 28.0462 2.37854C28.0411 2.37613 28.0356 2.37489 28.0301 2.37489C28.0245 2.37489 28.019 2.37613 28.014 2.37854C28.009 2.38094 28.0046 2.38444 28.0011 2.38877C25.7392 5.16982 23.0643 7.3431 19.9763 8.90862C15.3256 11.2667 10.3888 12.048 5.16579 11.2525C5.12641 11.246 5.10745 11.2627 5.10891 11.3028C5.20881 14.2808 5.47058 17.286 5.89422 20.3186C6.58766 25.2886 7.83126 30.2291 9.8361 34.8294C12.1497 40.1348 15.4474 44.6458 19.7291 48.3624C22.0201 50.3508 24.7643 52.2641 27.9617 54.1024C27.9804 54.113 28.0015 54.1187 28.023 54.1189C28.0444 54.1191 28.0655 54.1138 28.0842 54.1035C30.0566 53.0053 32.0173 51.7286 33.9664 50.2732C38.8795 46.6047 42.665 42.0981 45.3228 36.7533Z" fill="#52C234"/>
<path d="M28.6989 13.8743C30.3592 14.1215 31.6148 15.4056 31.8905 17.055C31.9503 17.4101 31.9306 18.0288 31.8314 18.9111C31.2692 23.9306 30.7183 29.0687 30.1788 34.3253C30.1561 34.544 30.0876 34.7741 29.9731 35.0154C29.1736 36.7009 26.6984 36.6462 26.0323 34.8787C25.9529 34.6665 25.9011 34.4445 25.877 34.2126C25.3185 28.8562 24.7618 23.6725 24.2069 18.6617C24.1347 18.0113 24.1237 17.4866 24.1741 17.0878C24.3589 15.6331 25.4406 14.4103 26.8658 13.9859C27.4382 13.8153 28.0492 13.7781 28.6989 13.8743ZM28.4222 15.6025C27.2639 15.4471 26.285 15.9525 25.9427 17.0878C25.8763 17.3087 25.8697 17.6671 25.923 18.1629C26.4895 23.4457 27.0565 28.7289 27.6237 34.0125C27.6412 34.1787 27.681 34.2972 27.743 34.3679C27.965 34.6217 28.3905 34.4828 28.4277 34.1415C29.0015 28.8091 29.5724 23.5001 30.1405 18.2143C30.1908 17.7499 30.186 17.3918 30.1262 17.1403C29.9359 16.3331 29.2491 15.7118 28.4222 15.6025Z" fill="#52C234"/>
<path d="M30.508 39.7459C30.508 40.0712 30.4439 40.3934 30.3194 40.6939C30.1949 40.9945 30.0124 41.2676 29.7824 41.4976C29.5523 41.7277 29.2792 41.9102 28.9787 42.0347C28.6781 42.1592 28.356 42.2232 28.0306 42.2232C27.7053 42.2232 27.3832 42.1592 27.0826 42.0347C26.782 41.9102 26.5089 41.7277 26.2789 41.4976C26.0488 41.2676 25.8664 40.9945 25.7419 40.6939C25.6174 40.3934 25.5533 40.0712 25.5533 39.7459C25.5533 39.0889 25.8143 38.4587 26.2789 37.9942C26.7435 37.5296 27.3736 37.2686 28.0306 37.2686C28.356 37.2686 28.6781 37.3326 28.9787 37.4571C29.2792 37.5816 29.5523 37.7641 29.7824 37.9942C30.0124 38.2242 30.1949 38.4973 30.3194 38.7979C30.4439 39.0984 30.508 39.4206 30.508 39.7459ZM28.7558 39.747C28.7558 39.5544 28.6793 39.3697 28.5431 39.2335C28.4069 39.0973 28.2221 39.0207 28.0295 39.0207C27.8369 39.0207 27.6522 39.0973 27.516 39.2335C27.3798 39.3697 27.3033 39.5544 27.3033 39.747C27.3033 39.9396 27.3798 40.1243 27.516 40.2605C27.6522 40.3967 27.8369 40.4732 28.0295 40.4732C28.2221 40.4732 28.4069 40.3967 28.5431 40.2605C28.6793 40.1243 28.7558 39.9396 28.7558 39.747Z" fill="#52C234"/>
</svg>
