<svg width="32" height="32" viewBox="0 0 32 32" fill="none" xmlns="http://www.w3.org/2000/svg">
<g clip-path="url(#clip0_0_322)">
<path d="M17.725 2.92023e-06C18.1954 2.92023e-06 18.6162 0.292803 18.7746 0.731203L19.9042 3.8624C20.309 3.9632 20.6562 4.064 20.9506 4.1696C21.2722 4.2848 21.6866 4.4592 22.1986 4.6976L24.829 3.3056C25.0437 3.19185 25.2895 3.15079 25.5295 3.18859C25.7696 3.22638 25.9909 3.34098 26.1602 3.5152L28.4738 5.9072C28.781 6.2256 28.8674 6.6912 28.6946 7.0976L27.461 9.9888C27.6658 10.3648 27.829 10.6864 27.9538 10.9552C28.0882 11.248 28.2546 11.6512 28.453 12.1712L31.3282 13.4032C31.7602 13.5872 32.0274 14.0192 31.9986 14.4816L31.7874 17.8016C31.773 18.0173 31.6955 18.224 31.5647 18.3961C31.4339 18.5681 31.2554 18.698 31.0514 18.7696L28.3282 19.7376C28.2498 20.1136 28.1682 20.4352 28.0818 20.7072C27.9425 21.1273 27.7834 21.5405 27.605 21.9456L28.973 24.9696C29.0696 25.1821 29.0956 25.4199 29.0472 25.6482C28.9988 25.8765 28.8786 26.0833 28.7042 26.2384L26.1026 28.5616C25.9313 28.714 25.7175 28.8103 25.4899 28.8378C25.2622 28.8652 25.0317 28.8225 24.829 28.7152L22.1474 27.2944C21.7279 27.5165 21.2951 27.7126 20.8514 27.8816L19.6802 28.32L18.6402 31.2C18.5632 31.4109 18.4241 31.5936 18.2414 31.7241C18.0586 31.8546 17.8407 31.9268 17.6162 31.9312L14.5762 32C14.3458 32.0061 14.1191 31.9405 13.9274 31.8124C13.7357 31.6844 13.5884 31.5 13.5058 31.2848L12.2802 28.0416C11.8621 27.8987 11.448 27.744 11.0386 27.5776C10.7038 27.4327 10.374 27.2763 10.0498 27.1088L7.00982 28.408C6.80951 28.4935 6.58868 28.5188 6.37421 28.4811C6.15974 28.4433 5.96087 28.344 5.80182 28.1952L3.55222 26.0848C3.38474 25.9284 3.27067 25.7232 3.22617 25.4984C3.18166 25.2736 3.20897 25.0405 3.30422 24.832L4.61142 21.984C4.43757 21.6467 4.27639 21.303 4.12822 20.9536C3.95526 20.526 3.79519 20.0932 3.64822 19.656L0.784222 18.784C0.551423 18.7136 0.348373 18.5684 0.206605 18.3708C0.064838 18.1732 -0.00771229 17.9343 0.00022174 17.6912L0.112222 14.6176C0.120194 14.4171 0.18284 14.2225 0.293386 14.055C0.403933 13.8875 0.558171 13.7534 0.739422 13.6672L3.74422 12.224C3.88342 11.7136 4.00502 11.3168 4.11222 11.0272C4.26317 10.6404 4.43079 10.2603 4.61462 9.888L3.31222 7.136C3.21338 6.92701 3.18337 6.69207 3.22649 6.46494C3.26962 6.23782 3.38366 6.03022 3.55222 5.872L5.79862 3.7504C5.9561 3.60188 6.15313 3.50202 6.36603 3.46285C6.57892 3.42368 6.79859 3.44686 6.99862 3.5296L10.0354 4.784C10.3714 4.56 10.6754 4.3792 10.9506 4.2336C11.2786 4.0592 11.717 3.8768 12.269 3.68L13.325 0.734403C13.4031 0.518832 13.5458 0.332613 13.7337 0.201173C13.9215 0.0697323 14.1454 -0.000522001 14.3746 2.92023e-06H17.725ZM16.0386 11.2304C13.3714 11.2304 11.2098 13.3664 11.2098 16.0032C11.2098 18.64 13.3714 20.7776 16.0386 20.7776C18.7042 20.7776 20.8658 18.64 20.8658 16.0032C20.8658 13.3664 18.7058 11.2304 16.0386 11.2304Z" fill="white"/>
</g>
<defs>
<clipPath id="clip0_0_322">
<rect width="32" height="32" fill="white"/>
</clipPath>
</defs>
</svg>
