<svg width="56" height="56" viewBox="0 0 56 56" fill="none" xmlns="http://www.w3.org/2000/svg">
<g clip-path="url(#clip0_0_563)">
<path d="M25.2766 0H30.5222C31.9331 0.158229 32.9106 0.807552 33.4545 1.94797C33.6507 2.35922 33.8085 2.95969 33.9281 3.74937C34.0842 4.77385 34.2508 5.76807 34.428 6.73203C34.4303 6.74463 34.4358 6.7564 34.444 6.76619C34.4523 6.77598 34.463 6.78343 34.475 6.78781C34.9307 6.95333 35.3974 7.11885 35.875 7.28437C36.7205 7.57859 37.5298 8.00625 38.3348 8.37594C38.3677 8.39125 38.3986 8.38833 38.4278 8.36719C39.4559 7.63 40.5311 6.8662 41.6533 6.07578C43.073 5.07609 44.9072 5.3025 46.1355 6.51656C47.0936 7.46448 48.2063 8.57719 49.4736 9.85469C50.1503 10.5357 50.5127 11.2901 50.5608 12.1177C50.6104 12.9766 50.4106 13.7236 49.9614 14.3587C49.2023 15.4321 48.4309 16.5138 47.647 17.6039C47.6397 17.6143 47.6352 17.6265 47.6341 17.6394C47.6329 17.6522 47.6351 17.6653 47.6405 17.6772C48.0123 18.4734 48.4214 19.2664 48.7167 20.0998C48.8764 20.5483 49.0292 20.9781 49.175 21.3894C49.191 21.4339 49.222 21.4597 49.268 21.467C50.52 21.6748 51.788 21.891 53.072 22.1156C54.7313 22.4055 55.895 23.6786 56 25.3619V30.6261C55.9191 31.652 55.4878 32.4869 54.7061 33.1308C54.2234 33.5289 53.6922 33.7772 53.1125 33.8756C51.7993 34.098 50.5039 34.3135 49.2264 34.522C49.2128 34.5243 49.2001 34.5301 49.1897 34.5388C49.1793 34.5475 49.1716 34.5587 49.1673 34.5712C49.0004 35.0401 48.8301 35.5115 48.6566 35.9855C48.3678 36.7741 47.9762 37.5408 47.623 38.2922C47.6055 38.3294 47.6087 38.3647 47.6328 38.3983C48.4006 39.4658 49.1506 40.5205 49.8827 41.5625C50.925 43.0445 50.7183 44.8984 49.443 46.1595C48.5082 47.0841 47.5843 48.012 46.6714 48.9431C46.0516 49.5753 45.5653 49.9804 45.2123 50.1583C44.0322 50.7511 42.6759 50.6734 41.5942 49.9078C40.483 49.1203 39.4169 48.3598 38.3961 47.6263C38.3735 47.6102 38.3498 47.608 38.325 47.6197C37.5287 47.9883 36.7511 48.3886 35.9264 48.6839C35.4481 48.8553 35.0051 49.0153 34.5975 49.1641C34.5618 49.1772 34.5406 49.2027 34.5341 49.2406C34.3306 50.4642 34.1159 51.726 33.8898 53.0261C33.5978 54.7094 32.3181 55.8797 30.6152 56H25.363C24.2962 55.9169 23.4653 55.5031 22.8703 54.7586C22.4605 54.246 22.2002 53.6557 22.0894 52.9878C21.8801 51.7271 21.6716 50.4773 21.4638 49.2384C21.4572 49.1998 21.4357 49.1739 21.3992 49.1608C20.615 48.8786 19.7903 48.6052 19.0455 48.2595C18.6503 48.0758 18.2379 47.8829 17.8084 47.6809C17.7921 47.6733 17.7741 47.6703 17.756 47.672C17.7379 47.6737 17.7206 47.6802 17.7056 47.6908C16.5003 48.5614 15.396 49.3453 14.3927 50.0423C13.0003 51.0103 11.1748 50.7522 9.97937 49.5731C8.76458 48.3744 7.62635 47.2354 6.56469 46.1562C5.32219 44.8908 5.18656 43.0544 6.2125 41.6216C6.89062 40.6744 7.63365 39.639 8.44156 38.5153C8.46052 38.4898 8.46307 38.4624 8.44922 38.4333C8.24141 37.9921 8.0325 37.5576 7.8225 37.1295C7.44844 36.365 7.19469 35.5469 6.88844 34.7331C6.87604 34.6996 6.85234 34.6795 6.81734 34.673C5.9088 34.5016 4.865 34.3244 3.68594 34.1414C2.93125 34.024 2.35156 33.8687 1.94687 33.6755C0.800625 33.1279 0.151667 32.1457 0 30.7289V25.4822C0.160417 24.0734 0.813021 23.0974 1.95781 22.5542C2.37781 22.3544 2.99578 22.194 3.81172 22.073C4.80557 21.9249 5.77609 21.7623 6.72328 21.5852C6.75828 21.5786 6.78161 21.5589 6.79328 21.5261C7.09078 20.708 7.34453 19.8472 7.71859 19.0662C7.91109 18.6645 8.10542 18.2489 8.30156 17.8194C8.31979 17.7807 8.31651 17.7439 8.29172 17.7089C7.53995 16.6523 6.77578 15.5765 5.99922 14.4812C4.99844 13.0703 5.18219 11.2131 6.4225 9.96297C7.54979 8.82766 8.70187 7.68031 9.87875 6.52094C11.0698 5.34734 12.9402 5.17891 14.315 6.15672C15.3898 6.92161 16.4482 7.68323 17.4902 8.44156C17.5157 8.45979 17.543 8.46234 17.5722 8.44922C18.3827 8.06969 19.2084 7.63109 20.0473 7.33578C20.4579 7.19141 20.8695 7.04229 21.2822 6.88844C21.3194 6.87385 21.3412 6.84724 21.3478 6.80859C21.5687 5.51432 21.7893 4.21932 22.0095 2.92359C22.1131 2.31547 22.3683 1.76677 22.7752 1.2775C23.4197 0.502396 24.2535 0.0765625 25.2766 0ZM31.5853 47.7608C31.7319 46.9044 32.2875 46.5423 33.1012 46.3225C34.623 45.9127 36.1251 45.2802 37.6075 44.4248C38.018 44.1879 38.4256 44.1211 38.8303 44.2247C39.068 44.2852 39.356 44.438 39.6944 44.683C40.9777 45.6112 42.229 46.5026 43.4481 47.3572C43.5048 47.397 43.5737 47.4156 43.6428 47.4096C43.7118 47.4036 43.7765 47.3734 43.8255 47.3244L47.2861 43.8638C47.3458 43.8039 47.3826 43.7249 47.39 43.6406C47.3974 43.5562 47.3749 43.4718 47.3266 43.4022C46.5274 42.2574 45.6732 41.0572 44.7639 39.8016C44.4795 39.4093 44.3053 39.0954 44.2411 38.8598C44.1244 38.4326 44.1948 37.9932 44.4522 37.5419C45.3308 36.0041 45.9703 34.4677 46.3706 32.9328C46.5741 32.1541 47.0345 31.7031 47.752 31.5798C49.3533 31.3057 50.9491 31.0392 52.5394 30.7803C52.6335 30.765 52.7191 30.7167 52.781 30.644C52.8429 30.5713 52.8771 30.4789 52.8773 30.3833V25.5883C52.8774 25.5025 52.8472 25.4195 52.7922 25.3539C52.7372 25.2882 52.6608 25.2442 52.5766 25.2295C51.1401 24.978 49.6789 24.7333 48.1928 24.4956C47.7218 24.4198 47.3802 24.321 47.168 24.1992C46.8005 23.9892 46.5536 23.6531 46.4275 23.1908C45.9659 21.494 45.3367 19.9617 44.5397 18.5938C44.1361 17.9014 44.0464 17.2353 44.5123 16.5791C45.4821 15.2133 46.4246 13.887 47.3397 12.6C47.3889 12.5309 47.412 12.4467 47.405 12.3622C47.398 12.2777 47.3613 12.1984 47.3014 12.1384L43.8605 8.6975C43.8048 8.64185 43.7312 8.6077 43.6527 8.60109C43.5742 8.59449 43.4959 8.61585 43.4317 8.66141C42.3037 9.45839 41.1359 10.2991 39.9284 11.1836C39.4858 11.5073 39.1475 11.7031 38.9134 11.7709C38.4927 11.8927 38.0563 11.8256 37.6042 11.5697C36.0766 10.7034 34.611 10.0869 33.2073 9.72016C32.7188 9.59182 32.3622 9.44708 32.1377 9.28594C31.7891 9.0351 31.5762 8.68474 31.4989 8.23484C31.2371 6.70651 30.9684 5.11292 30.6928 3.45406C30.6783 3.36819 30.6339 3.29022 30.5675 3.23396C30.501 3.17771 30.4168 3.1468 30.3297 3.14672H25.4887C25.4083 3.14675 25.3304 3.17506 25.2688 3.22666C25.2071 3.27827 25.1658 3.34988 25.1519 3.42891C24.8974 4.87703 24.6422 6.38167 24.3863 7.94281C24.3184 8.35771 24.2207 8.6738 24.0931 8.89109C23.8758 9.26151 23.5309 9.51161 23.0584 9.64141C21.4477 10.0847 20.0087 10.6765 18.7414 11.4166C18.2908 11.6805 17.9444 11.8285 17.7023 11.8606C17.2466 11.9211 16.8459 11.8282 16.5003 11.5817C15.1842 10.6447 13.8538 9.69682 12.5092 8.73797C12.4456 8.69272 12.3681 8.67141 12.2904 8.67781C12.2127 8.68422 12.1399 8.71793 12.0848 8.77297L8.63734 12.2172C8.5788 12.2758 8.54276 12.3532 8.53556 12.4356C8.52836 12.518 8.55046 12.6002 8.59797 12.6678C9.4387 13.8687 10.3203 15.108 11.2427 16.3855C11.7513 17.0887 11.9831 17.698 11.5402 18.4909C10.6878 20.0127 10.0782 21.4787 9.71141 22.8889C9.59109 23.3512 9.45547 23.6855 9.30453 23.8919C9.04495 24.2448 8.69094 24.4595 8.2425 24.5361C6.70615 24.7986 5.11255 25.0673 3.46172 25.3422C3.37717 25.3562 3.30031 25.3998 3.24484 25.4653C3.18936 25.5308 3.15886 25.6139 3.15875 25.6998V30.5287C3.15875 30.6161 3.18958 30.7006 3.24581 30.7675C3.30203 30.8343 3.38004 30.8791 3.46609 30.8941C4.91276 31.1449 6.39188 31.3932 7.90344 31.6389C8.3475 31.7118 8.6749 31.8095 8.88562 31.932C9.25969 32.1508 9.50943 32.4833 9.63484 32.9295C10.1052 34.5971 10.6947 36.0365 11.4034 37.2477C11.6805 37.7216 11.8377 38.0917 11.8748 38.3578C11.9361 38.788 11.8391 39.1836 11.5839 39.5445C10.6724 40.8359 9.73438 42.1517 8.76969 43.4919C8.71836 43.5634 8.69404 43.6507 8.70105 43.7384C8.70805 43.8261 8.74594 43.9085 8.80797 43.9709L12.2347 47.3977C12.3761 47.5391 12.5282 47.5519 12.6908 47.4359C13.9194 46.5588 15.2254 45.6302 16.6086 44.6502C17.2488 44.1966 17.8708 44.1368 18.4745 44.4708C20.0459 45.3399 21.4535 45.9368 22.6975 46.2612C23.213 46.3954 23.5853 46.5482 23.8142 46.7195C24.1416 46.9645 24.3421 47.3021 24.4158 47.7323C24.687 49.3139 24.9579 50.9286 25.2284 52.5766C25.2417 52.6566 25.2829 52.7294 25.3448 52.7819C25.4067 52.8344 25.4852 52.8632 25.5664 52.8631H30.3986C30.6144 52.8631 30.7402 52.757 30.7759 52.5448C31.0486 50.9224 31.3184 49.3278 31.5853 47.7608Z" fill="#52C234"/>
<path d="M40.0805 27.9944C40.0805 31.1969 38.8083 34.2682 36.5438 36.5327C34.2793 38.7972 31.208 40.0694 28.0055 40.0694C24.803 40.0694 21.7317 38.7972 19.4672 36.5327C17.2027 34.2682 15.9305 31.1969 15.9305 27.9944C15.9305 24.7919 17.2027 21.7206 19.4672 19.4561C21.7317 17.1916 24.803 15.9194 28.0055 15.9194C31.208 15.9194 34.2793 17.1916 36.5438 19.4561C38.8083 21.7206 40.0805 24.7919 40.0805 27.9944ZM36.925 27.9933C36.925 26.8222 36.6943 25.6624 36.2461 24.5804C35.7979 23.4984 35.141 22.5152 34.3129 21.6871C33.4847 20.8589 32.5015 20.202 31.4195 19.7538C30.3375 19.3056 29.1778 19.0749 28.0066 19.0749C25.6413 19.0749 23.3728 20.0145 21.7003 21.6871C20.0278 23.3596 19.0881 25.628 19.0881 27.9933C19.0881 29.1645 19.3188 30.3242 19.767 31.4063C20.2152 32.4883 20.8721 33.4715 21.7003 34.2996C23.3728 35.9722 25.6413 36.9118 28.0066 36.9118C29.1778 36.9118 30.3375 36.6811 31.4195 36.2329C32.5015 35.7847 33.4847 35.1278 34.3129 34.2996C35.141 33.4715 35.7979 32.4883 36.2461 31.4063C36.6943 30.3242 36.925 29.1645 36.925 27.9933Z" fill="#52C234"/>
</g>
<defs>
<clipPath id="clip0_0_563">
<rect width="56" height="56" fill="white"/>
</clipPath>
</defs>
</svg>
