<svg width="56" height="56" viewBox="0 0 56 56" fill="none" xmlns="http://www.w3.org/2000/svg">
<path d="M32.3772 0H33.2281C39.9842 0.452813 44.3319 7.24828 41.6926 13.5713C41.6908 13.5756 41.6901 13.5803 41.6906 13.5849C41.691 13.5896 41.6926 13.5941 41.6952 13.598C41.6978 13.6019 41.7014 13.6051 41.7055 13.6073C41.7096 13.6095 41.7142 13.6106 41.7189 13.6106C42.7645 13.623 43.8535 13.6216 44.9859 13.6063C45.6086 13.5982 46.0268 13.65 46.2405 13.7616C46.9197 14.117 47.1122 14.6945 47.0925 15.4394C47.0779 16.0074 47.0783 16.5754 47.0936 17.1434C47.098 17.317 47.0681 17.477 47.0039 17.6236C46.7141 18.2842 45.6958 18.2448 45.4945 17.5372C45.4544 17.3979 45.4358 17.2452 45.4387 17.0789C45.449 16.4577 45.45 15.8594 45.442 15.2841C45.442 15.2803 45.4413 15.2766 45.4399 15.2732C45.4384 15.2697 45.4363 15.2666 45.4337 15.264C45.4311 15.2613 45.4279 15.2592 45.4245 15.2578C45.421 15.2564 45.4173 15.2556 45.4136 15.2556H40.8231C40.7816 15.2556 40.7487 15.2728 40.7247 15.307C39.822 16.6064 38.6433 17.6422 37.1886 18.4144C37.1514 18.4341 37.1328 18.4651 37.1328 18.5073V23.5145C37.1328 23.5285 37.1385 23.5418 37.1485 23.5517C37.1586 23.5615 37.1722 23.567 37.1864 23.567H45.3852C45.4002 23.567 45.4147 23.561 45.4254 23.5504C45.436 23.5397 45.442 23.5252 45.442 23.5102C45.4457 22.8335 45.446 22.0515 45.4431 21.1641C45.4376 19.9927 47.1166 20.0069 47.0925 21.21C47.0794 21.9151 47.0794 22.6115 47.0925 23.2991C47.1005 23.7533 47.0546 24.0946 46.9547 24.3228C46.6944 24.9145 46.1376 25.2109 45.5066 25.2109C42.7977 25.2109 39.9842 25.2106 37.0661 25.2098C36.4076 25.2088 35.8367 24.8828 35.6016 24.2659C35.525 24.0647 35.4874 23.7923 35.4889 23.4489C35.4955 22.0212 35.4958 20.5964 35.49 19.1745C35.4893 19.1249 35.4652 19.1067 35.4178 19.1198C33.717 19.5748 32.06 19.6241 30.3253 19.203C30.2845 19.1935 30.2622 19.2095 30.2586 19.2511C30.1623 20.4192 29.898 21.6063 29.4656 22.8123C29.3577 23.1142 29.2206 23.3166 29.0544 23.4194C28.3369 23.8634 27.5691 23.1503 27.8731 22.3661C28.3314 21.1838 28.5939 19.9347 28.6551 18.6747C28.6573 18.6317 28.6391 18.6007 28.6005 18.5817C24.5547 16.6239 22.4066 12.4841 23.1197 8.0325C23.1226 8.01296 23.1197 7.993 23.1113 7.97511C23.1029 7.95722 23.0895 7.94218 23.0726 7.93188C18.9711 5.40422 13.8906 5.48297 9.9389 8.19766C3.75812 12.4447 2.93999 21.257 8.27531 26.5497C9.83208 28.0941 11.6976 29.143 13.872 29.6964C13.9187 29.7081 13.942 29.6898 13.942 29.6417L13.9387 22.9939C13.9387 22.9509 13.9172 22.9297 13.8742 22.9305C13.2996 22.9436 12.7243 22.9399 12.1483 22.9195C10.4256 22.8605 9.07265 21.3456 9.08577 19.6602C9.10765 16.9127 12.3408 15.4241 14.4276 17.2047C15.2297 17.8886 15.6158 18.8165 15.5859 19.9883C15.5779 20.3208 15.5768 20.7353 15.5826 21.2319C15.5834 21.2734 15.6045 21.2942 15.6461 21.2942H17.7767C17.7884 21.2942 17.7997 21.2896 17.808 21.2815C17.8164 21.2733 17.8213 21.2622 17.8216 21.2505C17.8456 20.4772 17.7461 19.6088 17.9287 18.8902C18.6823 15.9392 22.6253 15.5684 23.9903 18.258C24.8926 20.0364 23.9116 22.1452 22.0905 22.762C21.3194 23.0234 20.3437 22.9294 19.5048 22.9348C19.48 22.9348 19.4676 22.9476 19.4676 22.9731V29.6636C19.4676 29.6993 19.4851 29.7128 19.5201 29.7041C22.1276 29.0442 24.2743 27.6901 25.9601 25.6419C26.2303 25.3138 26.5628 25.13 26.9828 25.293C27.5023 25.4964 27.6708 26.1275 27.3241 26.5639C26.2872 27.8706 25.0184 28.9658 23.5178 29.8495C23.4761 29.8736 23.4443 29.912 23.4281 29.9578L22.0883 33.6033C22.0722 33.6456 22.0857 33.6744 22.1287 33.6897C22.7041 33.8917 23.1011 34.2625 23.3198 34.802C23.4358 35.0879 23.4857 35.5286 23.4697 36.1244C23.4507 36.8258 23.4511 37.5328 23.4708 38.2452C23.4846 38.7541 23.4329 39.1493 23.3155 39.4308C23.0566 40.052 22.5801 40.441 21.8859 40.5978C21.8451 40.6073 21.8243 40.6328 21.8236 40.6744C21.8185 41.2759 21.8185 41.8538 21.8236 42.408C21.8323 43.3245 21.3919 43.851 20.5023 43.9873C20.4593 43.9939 20.4385 44.0191 20.44 44.0628C20.4502 44.2932 20.4517 44.5302 20.4444 44.7738C20.4039 46.1256 19.3725 47.1953 18.0108 47.2095C17.1358 47.2197 16.2746 47.2208 15.4273 47.2128C13.9836 47.1986 12.9325 46.0633 12.9587 44.6152C12.9624 44.4219 12.9628 44.2305 12.9598 44.0409C12.9591 44.0008 12.9391 43.979 12.8997 43.9753C11.993 43.8922 11.5675 43.2458 11.5828 42.3784C11.593 41.8257 11.5937 41.2504 11.585 40.6525C11.585 40.6248 11.5715 40.608 11.5445 40.6022C10.4431 40.3703 9.92796 39.5413 9.93999 38.4694C9.9502 37.5426 9.95312 36.5783 9.94874 35.5764C9.94437 34.6905 10.3848 34.0586 11.27 33.6809C11.2878 33.6731 11.302 33.659 11.3097 33.6413C11.3174 33.6236 11.3181 33.6038 11.3116 33.5858L9.97171 29.9403C9.95859 29.9031 9.93489 29.8743 9.90062 29.8539C6.77103 27.9654 4.68525 25.3097 3.64327 21.887C2.81093 19.1527 2.9389 16.0792 3.89921 13.4586C6.67952 5.86031 15.2753 2.31109 22.6144 5.80672C22.9075 5.94672 23.2086 6.10969 23.5178 6.29563C23.5645 6.32333 23.5976 6.31203 23.6173 6.26172C25.0917 2.57141 28.4003 0.205625 32.3772 0ZM40.8297 9.74969C40.8297 7.59961 39.9756 5.5376 38.4552 4.01726C36.9349 2.49693 34.8729 1.64281 32.7228 1.64281C30.5727 1.64281 28.5107 2.49693 26.9904 4.01726C25.47 5.5376 24.6159 7.59961 24.6159 9.74969C24.6159 11.8998 25.47 13.9618 26.9904 15.4821C28.5107 17.0024 30.5727 17.8566 32.7228 17.8566C34.8729 17.8566 36.9349 17.0024 38.4552 15.4821C39.9756 13.9618 40.8297 11.8998 40.8297 9.74969ZM11.667 18.223C10.8751 18.5894 10.4967 19.5267 10.8653 20.3219C11.1584 20.9563 11.6776 21.2796 12.4228 21.292C12.9318 21.3008 13.4225 21.2997 13.895 21.2888C13.9021 21.2886 13.9092 21.287 13.9157 21.2842C13.9222 21.2813 13.9281 21.2771 13.933 21.2719C13.9379 21.2667 13.9417 21.2606 13.9442 21.2539C13.9467 21.2472 13.9478 21.2401 13.9475 21.233C13.9344 20.8873 13.9347 20.5075 13.9486 20.0933C13.9624 19.647 13.9132 19.2978 13.8009 19.0455C13.4378 18.2273 12.4972 17.8402 11.667 18.223ZM21.6847 18.2022C20.872 17.8423 19.915 18.2689 19.5891 19.0805C19.4877 19.3328 19.4454 19.6886 19.4622 20.148C19.4753 20.5184 19.4757 20.8746 19.4633 21.2166C19.4611 21.2661 19.4851 21.2913 19.5355 21.292C20.0626 21.2986 20.5705 21.2971 21.0591 21.2877C22.8331 21.2559 23.2958 18.9142 21.6847 18.2022ZM17.827 23.0125C17.827 22.9916 17.8187 22.9716 17.804 22.9568C17.7892 22.942 17.7692 22.9338 17.7483 22.9338H15.6614C15.6405 22.9338 15.6205 22.942 15.6057 22.9568C15.5909 22.9716 15.5826 22.9916 15.5826 23.0125V29.9359C15.5826 29.9463 15.5847 29.9565 15.5886 29.9661C15.5926 29.9756 15.5984 29.9843 15.6057 29.9916C15.613 29.9989 15.6217 30.0047 15.6313 30.0087C15.6408 30.0127 15.6511 30.0147 15.6614 30.0147H17.7483C17.7586 30.0147 17.7689 30.0127 17.7784 30.0087C17.788 30.0047 17.7966 29.9989 17.804 29.9916C17.8113 29.9843 17.8171 29.9756 17.821 29.9661C17.825 29.9565 17.827 29.9463 17.827 29.9359V23.0125ZM13.942 31.4366C13.9418 31.4293 13.9392 31.4223 13.9347 31.4165C13.9302 31.4108 13.9239 31.4067 13.9169 31.4048L12.1264 30.8973C12.1204 30.8956 12.1141 30.8955 12.108 30.8971C12.102 30.8988 12.0965 30.902 12.0922 30.9065C12.088 30.911 12.085 30.9167 12.0837 30.9228C12.0824 30.9289 12.0828 30.9352 12.0848 30.9411L13.0561 33.5705C13.0585 33.5769 13.0629 33.5824 13.0685 33.5864C13.0742 33.5903 13.0809 33.5924 13.0878 33.5923L13.9081 33.5934C13.9126 33.5934 13.917 33.5926 13.9211 33.5909C13.9252 33.5892 13.9289 33.5867 13.9321 33.5835C13.9352 33.5804 13.9377 33.5766 13.9394 33.5725C13.9411 33.5684 13.942 33.564 13.942 33.5595V31.4366ZM21.3248 30.9258C21.3271 30.9194 21.3274 30.9125 21.3259 30.9059C21.3244 30.8993 21.3211 30.8932 21.3163 30.8884C21.3115 30.8836 21.3054 30.8803 21.2988 30.8788C21.2922 30.8772 21.2853 30.8776 21.2789 30.8798C20.7101 31.0884 20.1254 31.2543 19.5245 31.3775C19.4866 31.3855 19.4676 31.4092 19.4676 31.4486V33.5169C19.4676 33.5679 19.4932 33.5934 19.5442 33.5934H20.265C20.3175 33.5934 20.3529 33.569 20.3711 33.5202L21.3248 30.9258ZM17.827 31.6838C17.827 31.6762 17.824 31.669 17.8187 31.6636C17.8134 31.6583 17.8061 31.6553 17.7986 31.6553H15.6111C15.6035 31.6553 15.5963 31.6583 15.591 31.6636C15.5856 31.669 15.5826 31.6762 15.5826 31.6838V33.565C15.5826 33.5725 15.5856 33.5798 15.591 33.5851C15.5963 33.5904 15.6035 33.5934 15.6111 33.5934H17.7986C17.8061 33.5934 17.8134 33.5904 17.8187 33.5851C17.824 33.5798 17.827 33.5725 17.827 33.565V31.6838ZM19.2008 40.6372C17.9047 40.6853 17.932 38.9944 19.0378 38.9922C19.845 38.99 20.6813 38.9893 21.5469 38.99C21.5826 38.99 21.618 38.983 21.6511 38.9693C21.6841 38.9556 21.7142 38.9355 21.7394 38.9102C21.7647 38.8849 21.7848 38.8549 21.7985 38.8219C21.8122 38.7888 21.8192 38.7534 21.8192 38.7177L21.8203 35.5141C21.8203 35.4398 21.7909 35.3686 21.7386 35.3161C21.6863 35.2636 21.6154 35.2341 21.5414 35.2341H11.8705C11.7956 35.2341 11.7238 35.2638 11.6709 35.3167C11.618 35.3696 11.5883 35.4414 11.5883 35.5163V38.7177C11.5883 38.7899 11.6171 38.8592 11.6684 38.9102C11.7196 38.9613 11.7892 38.99 11.8617 38.99C13.0233 38.99 14.1265 38.9904 15.1714 38.9911C16.2991 38.9911 16.3319 40.6492 15.0719 40.635C14.3741 40.6277 13.7801 40.6263 13.2901 40.6306C13.2493 40.6306 13.2289 40.651 13.2289 40.6919V42.2734C13.2289 42.3135 13.249 42.3336 13.2891 42.3336L20.1228 42.3325C20.1607 42.3325 20.1797 42.3135 20.1797 42.2756V40.6645C20.1797 40.6572 20.1768 40.6501 20.1717 40.6448C20.1666 40.6395 20.1597 40.6364 20.1523 40.6361C19.8468 40.6244 19.5296 40.6248 19.2008 40.6372ZM18.7512 43.9731H14.6584C14.6425 43.9731 14.6272 43.9795 14.6159 43.9907C14.6046 44.002 14.5983 44.0173 14.5983 44.0333V44.7267C14.5983 44.9533 14.6913 45.1706 14.8568 45.3307C15.0223 45.4909 15.2468 45.5809 15.4809 45.5809H17.9287C18.1628 45.5809 18.3873 45.4909 18.5529 45.3307C18.7184 45.1706 18.8114 44.9533 18.8114 44.7267V44.0333C18.8114 44.0173 18.8051 44.002 18.7938 43.9907C18.7825 43.9795 18.7672 43.9731 18.7512 43.9731Z" fill="#52C234"/>
<path d="M31.8587 12.029C31.8631 12.0341 31.8685 12.0383 31.8746 12.0412C31.8807 12.0441 31.8873 12.0457 31.894 12.0458C31.9008 12.0459 31.9075 12.0445 31.9137 12.0418C31.9198 12.0391 31.9253 12.0351 31.9298 12.0301C33.3867 10.3712 34.9552 8.5997 36.6352 6.71553C37.3527 5.91272 38.5755 6.99006 37.847 7.81475C36.0445 9.85496 34.265 11.862 32.5084 13.8358C32.1311 14.2613 31.5678 14.2296 31.2145 13.8118C29.9421 12.3053 28.7324 10.8689 27.5855 9.50241C27.1764 9.01569 27.4159 8.31022 28.0284 8.16803C28.5206 8.05428 28.782 8.37256 29.0587 8.70397C29.9841 9.81011 30.9174 10.9184 31.8587 12.029Z" fill="#52C234"/>
<path d="M36.6144 55.9999H35.9723C34.6256 55.8774 33.5515 55.3414 32.7501 54.3921C31.5733 52.9979 31.3108 51.3675 31.9627 49.5008C31.9758 49.4629 31.9623 49.4439 31.9222 49.4439C30.6374 49.4403 29.2341 49.441 27.7123 49.4461C27.0419 49.4483 26.4644 49.1311 26.2795 48.4804C26.2227 48.2798 26.1957 48.0367 26.1986 47.7508C26.2095 46.4806 26.2117 45.2647 26.2051 44.1032C26.2015 43.4199 26.48 42.9504 27.0408 42.6944C27.4783 42.4954 27.9606 42.6539 28.4211 42.5708C29.5921 42.3594 30.3949 41.7144 30.8295 40.636C31.1642 39.8058 31.0636 38.7471 30.5791 37.9836C30.0883 37.2114 29.4047 36.744 28.5283 36.5814C28.2034 36.5213 27.8895 36.5399 27.5581 36.541C26.7236 36.5432 26.2041 35.853 26.2073 35.0655C26.2139 33.8194 26.211 32.5677 26.1986 31.3107C26.192 30.6763 26.2376 30.268 26.3353 30.0857C26.7159 29.3704 27.288 29.2807 28.0667 29.2883C29.2378 29.3 30.4584 29.3025 31.7286 29.296C32.4213 29.2931 32.8912 29.5763 33.1384 30.1458C33.2752 30.4597 33.2347 30.7824 33.2675 31.1116C33.4086 32.4941 34.4805 33.5944 35.84 33.7913C37.5911 34.0461 39.2153 32.7522 39.3094 30.9585C39.3203 30.7386 39.3028 30.5079 39.3673 30.2946C39.6058 29.5147 40.2489 29.2708 41.0364 29.2872C42.0281 29.3076 43.1123 29.3073 44.2892 29.2861C44.9236 29.2752 45.3531 29.3255 45.5776 29.4371C46.2798 29.7849 46.3706 30.3908 46.3619 31.1258C46.3458 32.3683 46.3444 33.6651 46.3575 35.0163C46.3582 35.0622 46.3797 35.0768 46.422 35.06C47.6062 34.5948 48.7685 34.5802 49.9089 35.0163C52.8358 36.1341 53.8158 39.7303 51.9487 42.1968C50.6406 43.9249 48.4356 44.4696 46.4133 43.6875C46.3732 43.6722 46.3531 43.6857 46.3531 43.728C46.3436 44.9399 46.3466 46.2254 46.3619 47.5846C46.367 48.0994 46.3218 48.4545 46.2262 48.6499C45.9408 49.2328 45.4464 49.4472 44.8175 49.445C43.3541 49.4399 41.9562 49.4396 40.6241 49.4439C40.6177 49.444 40.6115 49.4457 40.6059 49.4487C40.6003 49.4517 40.5956 49.4561 40.592 49.4613C40.5885 49.4666 40.5863 49.4726 40.5855 49.4789C40.5848 49.4852 40.5857 49.4916 40.588 49.4975C41.113 50.7914 41.0812 52.1357 40.4567 53.3946C39.713 54.8959 38.4322 55.7644 36.6144 55.9999ZM33.7498 49.6561C33.1614 50.5136 33.0859 51.7157 33.542 52.6279C33.9781 53.4992 34.6646 54.0494 35.6016 54.2783C38.1981 54.9149 40.3156 51.9541 38.8358 49.6999C38.3589 48.9725 38.5897 48.0691 39.4658 47.8307C39.5467 47.8088 39.8705 47.7982 40.437 47.7989C41.8064 47.8019 43.2111 47.8015 44.6512 47.7979C44.6906 47.7971 44.7103 47.7771 44.7103 47.7377C44.7147 46.3902 44.7132 44.9286 44.7059 43.3528C44.7026 42.7338 44.6808 42.1694 45.3075 41.8216C45.7202 41.5926 46.1453 41.6236 46.5828 41.9146C48.3153 43.0696 50.7139 42.0961 51.1798 40.0749C51.3038 39.5346 51.298 39.042 51.1623 38.5972C50.7715 37.3168 49.9166 36.572 48.5975 36.3627C47.9642 36.2621 47.1319 36.4382 46.5576 36.8461C45.7734 37.4029 44.7169 36.8702 44.7136 35.9197C44.7099 34.43 44.7099 32.7905 44.7136 31.0011C44.7136 30.9588 44.6924 30.9377 44.6501 30.9377L40.9894 30.9366C40.9802 30.9366 40.9713 30.9401 40.9646 30.9464C40.9579 30.9527 40.9538 30.9613 40.9533 30.9705C40.8209 33.146 39.3323 34.9714 37.1689 35.3772C34.3569 35.9044 31.7723 33.8843 31.6116 30.9935C31.6107 30.9784 31.6041 30.9642 31.5931 30.9538C31.5822 30.9434 31.5676 30.9377 31.5525 30.9377H27.8906C27.8793 30.9377 27.8685 30.9422 27.8605 30.9502C27.8525 30.9582 27.848 30.969 27.848 30.9804V34.85C27.848 34.8763 27.8611 34.8894 27.8873 34.8894C28.8834 34.8916 29.7682 35.1464 30.5419 35.6539C32.095 36.6733 32.9066 38.4868 32.6003 40.3013C32.2076 42.6255 30.2859 44.241 27.9114 44.2388C27.8691 44.2388 27.848 44.2599 27.848 44.3022V47.7399C27.848 47.7822 27.8691 47.8033 27.9114 47.8033C29.6395 47.8011 31.2678 47.8011 32.7961 47.8033C33.7816 47.8044 34.3109 48.838 33.7498 49.6561Z" fill="#52C234"/>
</svg>
