<svg width="56" height="56" viewBox="0 0 56 56" fill="none" xmlns="http://www.w3.org/2000/svg">
<g clip-path="url(#clip0_0_649)">
<path d="M17.1752 0H17.6684C21.4287 0.232604 24.286 1.93557 26.2402 5.10891C26.2613 5.14391 26.2912 5.15594 26.3298 5.145C26.6135 5.06844 26.9022 4.99844 27.1961 4.935C32.5052 3.79823 37.4515 4.54052 42.035 7.16188C42.7262 7.55781 42.8564 8.48859 42.2209 8.995C41.708 9.40297 41.2628 9.24875 40.7192 8.94359C36.9502 6.82099 32.8836 6.14469 28.5195 6.91469C28.5122 6.91542 28.509 6.91943 28.5097 6.92672L28.5119 6.95406C28.5126 6.95844 28.5152 6.96062 28.5195 6.96062C28.8965 6.95333 29.2702 6.98104 29.6406 7.04375C32.6955 7.56 35.1313 9.62609 36.1561 12.5595C36.1685 12.5945 36.1918 12.6201 36.2261 12.6361L37.5572 13.253C37.5893 13.2676 37.6181 13.2628 37.6436 13.2388C37.9068 12.9821 38.1737 12.7137 38.4442 12.4338C38.9211 11.9416 39.6091 11.8584 40.1166 12.367C41.292 13.5446 42.4561 14.7091 43.6089 15.8605C43.9392 16.1908 44.0519 16.6983 43.8353 17.1194C43.6144 17.547 43.0773 17.9572 42.7252 18.3356C42.6974 18.3648 42.6931 18.3972 42.712 18.433C43.1036 19.1629 43.4149 19.9135 43.6461 20.685C43.6578 20.7229 43.6833 20.7433 43.7227 20.7463C44.2477 20.7758 45.0516 20.65 45.4978 20.8709C45.9156 21.0788 46.1027 21.4867 46.1016 21.9373C46.0994 23.5444 46.0986 25.1413 46.0994 26.728C46.0994 27.6861 45.4573 27.988 44.5911 27.9497C44.2834 27.9358 43.9924 27.9351 43.7183 27.9475C43.6833 27.949 43.6607 27.9668 43.6505 28.0011C43.4201 28.7653 43.1072 29.521 42.712 30.2684C42.6945 30.3012 42.6985 30.3311 42.7241 30.3581C43.0872 30.7398 43.6406 31.1653 43.8484 31.5963C44.0573 32.0272 43.9184 32.5336 43.5805 32.8672C42.4772 33.958 41.3543 35.082 40.2117 36.2392C39.6386 36.82 38.967 36.8134 38.4048 36.2152C38.1795 35.9753 37.9199 35.7175 37.6261 35.4419C37.6161 35.4323 37.6035 35.4261 37.5899 35.4242C37.5764 35.4222 37.5626 35.4246 37.5506 35.4309C36.8083 35.8305 36.0515 36.1441 35.28 36.3716C35.2435 36.3825 35.2246 36.4066 35.2231 36.4438C35.2107 36.7398 35.2107 37.0537 35.2231 37.3855C35.257 38.2605 34.8972 38.8259 33.9872 38.8237C32.3728 38.8208 30.8004 38.8216 29.2698 38.8259C28.3412 38.8292 27.988 38.2495 28.0219 37.3702C28.035 37.0486 28.0343 36.7391 28.0197 36.4416C28.0182 36.4044 27.9993 36.3803 27.9628 36.3694C27.211 36.1455 26.4596 35.8349 25.7086 35.4375C25.6751 35.42 25.6441 35.4236 25.6156 35.4484C25.2186 35.8083 24.7986 36.3727 24.3556 36.5772C23.9094 36.7839 23.4216 36.6286 23.0836 36.2863C21.9928 35.1794 20.8797 34.067 19.7444 32.9492C19.0509 32.2667 19.2227 31.6105 19.8691 31.0056C20.0966 30.7934 20.3139 30.578 20.5209 30.3592C20.5336 30.3456 20.5417 30.3284 20.5441 30.3099C20.5465 30.2915 20.5429 30.2728 20.5341 30.2564C20.2949 29.8182 20.0783 29.3431 19.8844 28.8313C19.8813 28.8234 19.8763 28.8165 19.8698 28.8112C19.8632 28.806 19.8554 28.8025 19.8471 28.8012C19.8388 28.7998 19.8303 28.8007 19.8225 28.8037C19.8146 28.8067 19.8077 28.8116 19.8023 28.8181L15.2206 34.603C15.2089 34.6177 15.2016 34.6354 15.1997 34.6542C15.1977 34.673 15.2012 34.6921 15.2097 34.7091C15.4467 35.1932 15.6774 35.6807 15.902 36.1714C17.4588 39.5722 17.994 43.0784 17.5077 46.69C17.4347 47.2296 17.294 47.9449 17.0855 48.8359C16.4963 51.3486 15.9888 53.4541 15.563 55.1523C15.4434 55.6299 15.1189 55.9125 14.5895 56H14.4298C13.8494 55.8797 13.5195 55.5895 13.44 55.1294C13.4035 54.9143 13.4393 54.5861 13.5472 54.145C14.0066 52.2769 14.4667 50.3876 14.9275 48.4772C15.1302 47.6394 15.2709 46.9153 15.3497 46.305C15.7828 42.9676 15.2294 39.7359 13.6894 36.61C13.6869 36.6049 13.6832 36.6006 13.6786 36.5974C13.674 36.5941 13.6686 36.5921 13.663 36.5916C13.6574 36.591 13.6518 36.5919 13.6466 36.5942C13.6415 36.5965 13.637 36.6 13.6336 36.6045C13.3113 37.0202 12.9981 37.4143 12.6941 37.7869C12.1231 38.4869 11.0698 38.3436 10.7767 37.4839C10.7191 37.3155 10.7162 37.0428 10.768 36.6658C11.1676 33.7374 11.5606 30.7956 11.947 27.8403C11.9477 27.8349 11.9472 27.8295 11.9456 27.8243C11.944 27.8191 11.9413 27.8143 11.9378 27.8103C11.9343 27.8063 11.93 27.8031 11.9252 27.8009C11.9203 27.7987 11.9151 27.7976 11.9098 27.7977C10.6754 27.7969 9.40406 27.7966 8.09594 27.7966C7.46047 27.7966 6.90484 27.3098 6.9475 26.6623C6.9599 26.4669 7.02953 26.2482 7.15641 26.0061C7.58443 25.1923 8.01208 24.36 8.43937 23.5091C8.46198 23.4639 8.44812 23.4409 8.39781 23.4402C7.75031 23.4263 7.29896 23.3975 7.04375 23.3538C3.10953 22.6844 0.282187 19.6186 0 15.6373V14.712C0.334688 10.5175 3.47375 7.30844 7.63328 6.95953C7.64499 6.95853 7.65617 6.95419 7.66548 6.94701C7.67479 6.93984 7.68184 6.93013 7.68578 6.91906C8.3012 5.15375 9.3162 3.66224 10.7308 2.44453C12.5245 0.899427 14.6727 0.0845833 17.1752 0ZM9.61297 21.2188C10.5346 19.4126 11.5132 17.4978 12.5486 15.4744C12.7466 15.0883 13.1283 14.8673 13.5505 14.8684C16.7056 14.8714 19.8446 14.8721 22.9677 14.8706C23.9258 14.8706 24.407 15.8036 23.9083 16.613C22.9852 18.1078 22.0449 19.631 21.0875 21.1827C21.0583 21.2301 21.0715 21.2534 21.1269 21.2527C23.1977 21.2388 25.2744 21.2403 27.3569 21.257C28.2895 21.2643 28.9986 21.2224 29.4842 21.1313C31.9397 20.6686 33.8505 18.7217 34.2989 16.2564C34.6511 14.3227 34.0058 12.2445 32.6375 10.9266C30.9692 9.32094 28.9946 8.79411 26.7138 9.34609C25.8366 9.55828 25.3936 9.1525 25.1847 8.32453C23.6819 2.38547 16.4369 0.176094 11.8803 4.3575C10.7822 5.36594 10.0195 6.63651 9.59219 8.16922C9.41609 8.80469 9.07375 9.12078 8.39563 9.12516C6.38094 9.13828 4.75635 9.89917 3.52188 11.4078C2.28266 12.9227 1.86703 15.0511 2.45656 16.9531C3.25172 19.5158 5.57594 21.2341 8.26656 21.2461C8.69823 21.2476 9.13245 21.2476 9.56922 21.2461C9.57805 21.2461 9.58679 21.2436 9.59451 21.2388C9.60222 21.234 9.60861 21.227 9.61297 21.2188ZM37.1711 33.1253C38.0887 32.5478 38.7352 33.437 39.2897 34.0047C39.2967 34.0118 39.3062 34.016 39.3163 34.0162C39.3263 34.0164 39.336 34.0127 39.3433 34.0058L41.2814 32.0688C41.2882 32.062 41.2921 32.0528 41.2923 32.0433C41.2925 32.0337 41.289 32.0244 41.2825 32.0173C40.7597 31.4552 39.8169 30.8459 40.3856 29.9261C40.9296 29.0474 41.331 28.1601 41.5898 27.2639C41.6806 26.9478 41.7288 26.6055 41.8742 26.3222C42.2559 25.5719 43.1966 25.7698 43.8605 25.7523C43.874 25.7518 43.8868 25.746 43.8962 25.7362C43.9056 25.7264 43.9108 25.7134 43.9108 25.6998L43.9119 22.9994C43.9119 22.9842 43.9059 22.9696 43.8953 22.9588C43.8846 22.9479 43.8702 22.9417 43.855 22.9414C43.5648 22.9363 43.283 22.9374 43.0095 22.9447C42.4156 22.9589 41.8972 22.68 41.7659 22.1058C41.4903 20.9056 41.0419 19.8173 40.4206 18.8409C39.8125 17.8839 40.6733 17.2911 41.2606 16.7016C41.292 16.6695 41.292 16.6374 41.2606 16.6053L39.3466 14.6923C39.34 14.6856 39.331 14.6818 39.3216 14.6816C39.3122 14.6814 39.3031 14.6848 39.2962 14.6913C38.9484 15.0139 38.5689 15.5247 38.1259 15.6888C37.5506 15.9009 37.1186 15.5291 36.657 15.2709C36.6096 15.244 36.5852 15.2578 36.5838 15.3125C36.559 16.6797 36.2206 17.9572 35.5688 19.145C35.5476 19.1836 35.5534 19.2172 35.5863 19.2456C35.747 19.3845 35.9188 19.5158 36.0675 19.6602C38.8544 22.3639 38.7428 26.8866 35.6912 29.3442C34.3284 30.4416 32.7764 30.9163 31.0352 30.7683C27.3919 30.4587 24.7472 27.102 25.2284 23.4828C25.2292 23.4768 25.2287 23.4706 25.227 23.4648C25.2253 23.4589 25.2223 23.4535 25.2184 23.449C25.2144 23.4444 25.2096 23.4408 25.2042 23.4383C25.1987 23.4359 25.1928 23.4346 25.1869 23.4347H24.1205C24.1031 23.4347 24.086 23.4385 24.0705 23.4459C24.0549 23.4533 24.0414 23.464 24.0308 23.4773L21.5414 26.6208C21.5144 26.6551 21.506 26.6933 21.5163 26.7356C21.789 27.8651 22.2334 28.9224 22.8495 29.9075C23.4336 30.8394 22.5028 31.4431 21.9669 32.0184C21.9603 32.0256 21.9567 32.0348 21.9567 32.0442C21.9567 32.0536 21.9603 32.0624 21.9669 32.0688L23.9028 34.0058C23.9098 34.0125 23.9192 34.0161 23.929 34.0159C23.9388 34.0157 23.9482 34.0117 23.9553 34.0047C24.5416 33.4119 25.1519 32.5402 26.1209 33.1483C27.1097 33.7688 28.1528 34.203 29.2502 34.4509C30.4314 34.7167 30.1864 35.7 30.2192 36.5925C30.2195 36.6042 30.2244 36.6153 30.2327 36.6235C30.2411 36.6317 30.2524 36.6363 30.2641 36.6362H32.9558C33.0068 36.6362 33.0323 36.6111 33.0323 36.5608C33.0323 36.2451 33.0316 35.941 33.0302 35.6486C33.0269 35.0864 33.3309 34.6095 33.8756 34.4859C35.0561 34.2191 36.1546 33.7655 37.1711 33.1253ZM18.1945 21.7C19.0914 20.2439 20.0364 18.7166 21.0295 17.1183C21.0551 17.0774 21.0441 17.057 20.9967 17.057H14.2198C14.2122 17.057 14.2047 17.0592 14.1982 17.0632C14.1916 17.0673 14.1862 17.0731 14.1827 17.08L9.84922 25.562C9.84697 25.5664 9.84587 25.5712 9.84602 25.5761C9.84618 25.581 9.84759 25.5857 9.85012 25.5899C9.85264 25.5941 9.8562 25.5975 9.86045 25.5999C9.8647 25.6023 9.86949 25.6036 9.87437 25.6036C10.8602 25.6167 11.8417 25.6153 12.8187 25.5992C13.4564 25.5883 13.9836 25.6889 14.2275 26.3233C14.3019 26.5143 14.3052 26.8483 14.2373 27.3252C13.9559 29.3165 13.6905 31.2893 13.4411 33.2434C13.4331 33.3091 13.4495 33.316 13.4903 33.2642L21.2384 23.4795C21.2414 23.4758 21.2432 23.4713 21.2438 23.4666C21.2444 23.4618 21.2437 23.4571 21.2417 23.4528C21.2398 23.4486 21.2367 23.445 21.2328 23.4426C21.2289 23.4402 21.2244 23.4389 21.2198 23.4391C20.6117 23.4296 19.9606 23.4303 19.2664 23.4412C19.0404 23.4449 18.8435 23.415 18.6758 23.3516C17.9867 23.0891 17.827 22.295 18.1945 21.7ZM34.1753 21.0066C32.7053 22.4798 30.7464 23.3461 28.6628 23.427C28.272 23.4423 27.8939 23.4423 27.5286 23.427C27.4797 23.4248 27.4509 23.4478 27.4422 23.4959C27.0966 25.3619 27.9103 27.1403 29.5477 28.0689C31.5394 29.1988 34.1305 28.5042 35.2855 26.5245C36.3792 24.6509 35.9505 22.3847 34.2705 21.0011C34.2377 20.9741 34.2059 20.9759 34.1753 21.0066Z" fill="#52C234"/>
<path d="M45.4278 12.2566C46.0295 12.2566 46.5172 11.7689 46.5172 11.1673C46.5172 10.5656 46.0295 10.0779 45.4278 10.0779C44.8262 10.0779 44.3384 10.5656 44.3384 11.1673C44.3384 11.7689 44.8262 12.2566 45.4278 12.2566Z" fill="#52C234"/>
<path d="M56 37.0026V37.2728C55.8491 37.9188 55.4385 38.24 54.7684 38.2364C53.1942 38.2276 51.6728 38.2262 50.2042 38.232C50.1656 38.232 50.1459 38.2517 50.1452 38.2911C50.1335 39.7545 50.1342 41.1563 50.1473 42.4966C50.1619 44.1117 49.7248 45.5284 48.8359 46.7469C47.5563 48.5001 45.5361 49.5545 43.3836 49.5644C41.4695 49.5738 39.5354 49.5749 37.5813 49.5676C37.5528 49.5676 37.536 49.5819 37.5309 49.6103C37.2203 51.3909 36.9093 53.1748 36.598 54.962C36.493 55.5607 36.1506 55.9067 35.5709 56H35.4014C34.6234 55.8294 34.3 55.3736 34.4313 54.6328C34.7805 52.6553 35.1294 50.6596 35.478 48.6456C35.5443 48.2635 35.6238 48.0021 35.7164 47.8614C35.945 47.5114 36.3245 47.3769 36.7325 47.378C38.9368 47.3874 41.1305 47.3874 43.3136 47.378C45.4366 47.3692 47.2675 45.9594 47.8045 43.8955C47.9205 43.4492 47.9741 42.7463 47.9653 41.7867C47.9515 40.2956 47.9474 38.7982 47.9533 37.2947C47.9566 36.4131 48.4455 36.0281 49.2953 36.0336C50.645 36.0438 52.0027 36.0452 53.3684 36.038C53.3749 36.0379 53.3812 36.0363 53.387 36.0334C53.3927 36.0304 53.3977 36.0262 53.4015 36.021C53.4053 36.0158 53.4079 36.0098 53.409 36.0034C53.4101 35.9971 53.4097 35.9905 53.4078 35.9844C52.2893 32.3378 51.2258 28.8754 50.2173 25.597C50.1503 25.379 50.1153 25.1522 50.1123 24.9167C50.0773 21.6825 49.2111 18.5609 47.6 15.7905C47.3014 15.2775 47.2336 14.747 47.6591 14.3041C48.1775 13.7637 49.0284 13.8862 49.4047 14.5261C51.2254 17.6294 52.1883 20.9825 52.2933 24.5853C52.2998 24.8259 52.3407 25.0676 52.4158 25.3105C53.6189 29.2079 54.8136 33.1052 56 37.0026Z" fill="#52C234"/>
</g>
<defs>
<clipPath id="clip0_0_649">
<rect width="56" height="56" fill="white"/>
</clipPath>
</defs>
</svg>
