<svg width="32" height="32" viewBox="0 0 32 32" fill="none" xmlns="http://www.w3.org/2000/svg">
<rect width="32" height="32" rx="16" fill="black" fill-opacity="0.78"/>
<path d="M10.5099 11.572C10.5072 11.6366 10.5177 11.7011 10.5408 11.7614C10.5639 11.8218 10.5991 11.8768 10.6443 11.9231C10.6894 11.9694 10.7435 12.0059 10.8033 12.0305C10.8631 12.0551 10.9273 12.0671 10.9919 12.066H12.6419C12.9179 12.066 13.1379 11.84 13.1739 11.566C13.3539 10.254 14.2539 9.298 15.8579 9.298C17.2299 9.298 18.4859 9.984 18.4859 11.634C18.4859 12.904 17.7379 13.488 16.5559 14.376C15.2099 15.354 14.1439 16.496 14.2199 18.35L14.2259 18.784C14.228 18.9152 14.2816 19.0403 14.3752 19.1324C14.4687 19.2244 14.5947 19.276 14.7259 19.276H16.3479C16.4806 19.276 16.6077 19.2233 16.7015 19.1296C16.7953 19.0358 16.8479 18.9086 16.8479 18.776V18.566C16.8479 17.13 17.3939 16.712 18.8679 15.594C20.0859 14.668 21.3559 13.64 21.3559 11.482C21.3559 8.46 18.8039 7 16.0099 7C13.4759 7 10.6999 8.18 10.5099 11.572ZM13.6239 23.098C13.6239 24.164 14.4739 24.952 15.6439 24.952C16.8619 24.952 17.6999 24.164 17.6999 23.098C17.6999 21.994 16.8599 21.218 15.6419 21.218C14.4739 21.218 13.6239 21.994 13.6239 23.098Z" fill="white"/>
</svg> 